<?xml version="1.0" standalone="no"?>
<!DOCTYPE svg PUBLIC "-//W3C//DTD SVG 20010904//EN"
 "http://www.w3.org/TR/2001/REC-SVG-20010904/DTD/svg10.dtd">
<svg version="1.0" xmlns="http://www.w3.org/2000/svg"
 width="1318.000000pt" height="1402.000000pt" viewBox="0 0 1318.000000 1402.000000"
 preserveAspectRatio="xMidYMid meet">

<g transform="translate(0.000000,1402.000000) scale(0.100000,-0.100000)"
fill="#000000" stroke="none">
<path d="M7402 11829 c-299 -39 -513 -270 -554 -594 -15 -120 3 -235 55 -348
61 -132 142 -220 342 -372 162 -123 185 -153 185 -239 0 -83 -72 -139 -176
-140 -110 0 -268 96 -349 214 -15 22 -32 37 -36 33 -8 -9 7 -719 16 -733 9
-14 158 -57 259 -75 378 -65 693 87 841 407 44 97 63 169 74 285 15 149 -14
313 -72 413 -46 79 -175 205 -297 290 -58 40 -126 93 -152 118 -80 77 -88 151
-20 197 47 32 128 34 204 5 71 -27 178 -108 225 -169 21 -27 41 -50 45 -50 6
-1 -1 604 -7 626 -9 26 -214 102 -330 121 -96 17 -185 21 -253 11z m166 -39
c42 -11 95 -19 117 -19 42 2 109 -14 162 -37 17 -8 36 -14 43 -14 6 0 24 -7
40 -15 23 -12 30 -22 30 -45 0 -35 4 -34 -74 -14 -61 16 -93 23 -420 88 -99
20 -181 37 -183 40 -3 3 48 13 111 22 16 2 32 6 34 9 11 10 65 4 140 -15z
m-213 -79 c61 -11 155 -29 210 -41 109 -23 388 -80 393 -80 1 0 2 -49 1 -110
-1 -120 -10 -142 -48 -118 -12 7 -21 19 -21 27 0 11 4 9 15 -5 13 -16 16 -17
25 -4 5 8 10 18 10 21 0 12 -56 15 -67 4 -13 -14 -25 -65 -16 -66 5 -1 25 -2
46 -3 45 -3 65 -25 40 -43 -15 -11 -15 -13 -1 -13 12 0 17 -14 20 -62 3 -35 4
-64 3 -66 -2 -2 -20 13 -41 33 -22 20 -65 55 -97 77 -35 25 -56 47 -53 55 4 9
-6 13 -37 13 -54 0 -76 13 -58 34 7 8 10 20 6 26 -8 13 -35 13 -35 0 0 -7 -6
-7 -19 0 -30 15 -48 12 -54 -10 -6 -25 -35 -17 -46 12 -6 16 -19 21 -65 24
-34 3 -63 0 -71 -6 -26 -21 -70 -28 -90 -14 -22 16 -35 18 -35 4 0 -5 7 -10
15 -10 8 0 15 -9 15 -19 0 -39 9 -47 51 -43 30 3 39 1 37 -9 -2 -8 4 -14 12
-15 8 0 23 -4 33 -9 12 -5 24 -1 37 10 28 25 38 10 13 -18 -11 -12 -25 -31
-30 -42 -9 -18 -9 -33 -4 -96 2 -25 69 -90 155 -149 179 -125 306 -237 337
-298 8 -15 16 -29 20 -32 29 -26 62 -162 54 -219 -4 -27 -3 -31 4 -16 9 19 10
19 10 -2 1 -12 -5 -24 -11 -27 -10 -3 -8 -9 5 -19 16 -13 17 -26 12 -104 -11
-172 -43 -276 -119 -392 -69 -105 -191 -211 -242 -211 -13 0 -24 -4 -24 -10 0
-15 -76 -50 -133 -60 -33 -6 -64 -7 -85 -1 -23 7 -30 7 -26 -1 5 -8 1 -9 -12
-3 -35 15 -77 19 -70 6 5 -7 -3 -11 -23 -11 -19 0 -31 5 -31 13 0 10 -33 17
-114 25 -63 7 -121 15 -129 18 -18 7 -30 197 -25 410 l3 142 62 -38 c139 -84
284 -74 354 23 23 32 29 50 29 94 0 89 -20 114 -219 267 -56 43 -131 107 -165
141 l-63 62 -8 194 c-5 107 -8 288 -7 402 l1 208 47 55 c42 50 102 97 144 115
16 7 15 7 175 -20z m-397 -701 l-3 -165 -22 40 c-40 76 -57 153 -57 270 -1 82
3 121 16 151 9 23 14 45 10 49 -4 5 1 5 11 2 15 -6 17 0 17 42 0 27 3 58 8 68
10 26 23 -260 20 -457z m528 339 c3 -6 1 -16 -5 -22 -13 -13 -42 0 -49 21 -5
15 44 16 54 1z m-513 -1369 c3 -146 2 -269 -2 -273 -9 -9 -21 184 -21 335 0
96 -1 99 -25 108 -25 9 -26 13 -23 79 l2 70 31 -27 31 -27 7 -265z"/>
<path d="M7656 11732 c-10 -16 43 -23 67 -10 20 11 21 12 3 16 -10 2 -22 -2
-27 -9 -6 -10 -11 -10 -22 0 -9 7 -18 8 -21 3z"/>
<path d="M7270 11530 c0 -5 5 -10 10 -10 6 0 10 5 10 10 0 6 -4 10 -10 10 -5
0 -10 -4 -10 -10z"/>
<path d="M7573 11495 c-6 -18 -5 -20 23 -29 15 -4 24 -2 27 8 4 10 1 13 -9 9
-8 -3 -14 1 -14 11 0 20 -19 21 -27 1z"/>
<path d="M7815 11500 c3 -5 10 -10 16 -10 5 0 9 5 9 10 0 6 -7 10 -16 10 -8 0
-12 -4 -9 -10z"/>
<path d="M7420 11480 c0 -5 5 -10 10 -10 6 0 10 5 10 10 0 6 -4 10 -10 10 -5
0 -10 -4 -10 -10z"/>
<path d="M7513 11482 c-8 -5 -8 -12 3 -27 12 -15 16 -17 27 -6 9 11 9 14 -1
18 -6 3 -10 9 -6 14 6 11 -6 12 -23 1z"/>
<path d="M7765 11480 c-8 -14 13 -40 32 -40 20 0 12 44 -9 48 -9 2 -19 -2 -23
-8z"/>
<path d="M7270 11468 c0 -4 9 -8 20 -8 11 0 20 4 20 9 0 6 -9 9 -20 8 -11 -1
-20 -5 -20 -9z"/>
<path d="M7835 11460 c3 -5 11 -10 16 -10 6 0 7 5 4 10 -3 6 -11 10 -16 10 -6
0 -7 -4 -4 -10z"/>
<path d="M7430 11449 c0 -5 5 -7 10 -4 6 3 10 8 10 11 0 2 -4 4 -10 4 -5 0
-10 -5 -10 -11z"/>
<path d="M7470 11450 c-20 -12 -9 -21 18 -13 12 3 19 9 16 14 -7 11 -15 11
-34 -1z"/>
<path d="M7675 11450 c3 -5 8 -10 11 -10 2 0 4 5 4 10 0 6 -5 10 -11 10 -5 0
-7 -4 -4 -10z"/>
<path d="M7725 11440 c3 -5 10 -10 16 -10 5 0 9 5 9 10 0 6 -7 10 -16 10 -8 0
-12 -4 -9 -10z"/>
<path d="M7555 11420 c3 -5 8 -10 11 -10 2 0 4 5 4 10 0 6 -5 10 -11 10 -5 0
-7 -4 -4 -10z"/>
<path d="M7815 11420 c-4 -6 5 -10 19 -10 14 0 26 5 26 10 0 6 -9 10 -19 10
-11 0 -23 -4 -26 -10z"/>
<path d="M7750 11405 c0 -9 5 -15 11 -13 6 2 11 8 11 13 0 5 -5 11 -11 13 -6
2 -11 -4 -11 -13z"/>
<path d="M7704 11378 c-3 -4 6 -8 20 -8 13 0 31 -3 40 -6 9 -3 16 -2 16 4 0
12 -69 21 -76 10z"/>
<path d="M7185 11350 c-3 -5 -1 -10 4 -10 6 0 11 5 11 10 0 6 -2 10 -4 10 -3
0 -8 -4 -11 -10z"/>
<path d="M7881 11320 c-12 -7 -12 -11 -2 -24 15 -18 41 -21 41 -6 0 6 -4 10
-9 10 -5 0 -11 7 -13 15 -2 10 -8 12 -17 5z"/>
<path d="M7400 11280 c0 -5 5 -10 10 -10 6 0 10 5 10 10 0 6 -4 10 -10 10 -5
0 -10 -4 -10 -10z"/>
<path d="M7290 11260 c0 -5 5 -10 11 -10 5 0 7 5 4 10 -3 6 -8 10 -11 10 -2 0
-4 -4 -4 -10z"/>
<path d="M7275 11140 c3 -5 8 -10 11 -10 2 0 4 5 4 10 0 6 -5 10 -11 10 -5 0
-7 -4 -4 -10z"/>
<path d="M7306 11083 c-6 -14 -5 -15 5 -6 7 7 10 15 7 18 -3 3 -9 -2 -12 -12z"/>
<path d="M7403 10994 c-17 -17 -16 -21 2 -21 15 0 29 24 17 31 -4 2 -13 -2
-19 -10z"/>
<path d="M7313 10960 c3 -14 -3 -26 -20 -40 -13 -10 -22 -24 -18 -30 12 -19
40 -10 57 21 14 24 15 34 5 49 -15 26 -31 26 -24 0z"/>
<path d="M7428 10943 c-21 -5 -24 -33 -4 -33 7 0 16 9 19 20 3 11 4 19 4 19
-1 -1 -10 -3 -19 -6z"/>
<path d="M7167 10919 c-22 -25 -23 -69 -2 -69 13 0 14 4 4 21 -7 14 -7 25 -1
31 14 14 52 0 52 -20 0 -12 3 -13 12 -4 8 8 8 15 -2 27 -25 31 -45 35 -63 14z"/>
<path d="M7259 10830 l-24 -20 35 7 c43 7 44 8 27 22 -11 9 -20 7 -38 -9z"/>
<path d="M7350 10835 c7 -8 17 -15 22 -15 5 0 3 7 -6 15 -8 8 -18 15 -22 15
-3 0 -1 -7 6 -15z"/>
<path d="M7206 10833 c-48 -12 -57 -73 -11 -73 13 0 25 -6 28 -14 7 -17 43
-14 40 3 -2 6 10 11 30 10 25 0 28 -2 13 -8 -15 -6 -17 -9 -6 -16 8 -5 17 -2
25 8 16 22 25 21 20 -1 -3 -17 0 -17 31 -8 25 8 29 12 17 17 -15 5 -15 7 2 17
11 6 16 14 12 18 -5 5 -12 2 -16 -5 -5 -8 -14 -10 -21 -6 -9 6 -9 9 1 16 11 7
11 9 1 9 -7 0 -15 -7 -18 -15 -4 -8 -12 -15 -20 -15 -17 0 -19 17 -2 22 9 3 9
6 1 11 -7 5 -17 -1 -23 -13 -13 -24 -26 -25 -47 -4 -13 13 -17 13 -24 2 -5 -7
-9 -8 -10 -3 -4 32 -3 41 6 47 11 9 2 9 -29 1z"/>
<path d="M7516 10832 c-3 -6 -1 -14 5 -17 15 -10 25 3 12 16 -7 7 -13 7 -17 1z"/>
<path d="M7497 10784 c3 -9 0 -20 -8 -25 -11 -6 -11 -11 -1 -21 9 -9 12 -9 12
0 0 7 9 12 20 12 11 0 20 5 20 10 0 6 -4 10 -10 10 -5 0 -10 7 -10 15 0 8 -7
15 -15 15 -9 0 -12 -6 -8 -16z"/>
<path d="M7130 10780 c0 -5 5 -10 11 -10 5 0 7 5 4 10 -3 6 -8 10 -11 10 -2 0
-4 -4 -4 -10z"/>
<path d="M7545 10750 c-12 -13 -14 -20 -6 -20 17 0 43 28 32 34 -4 3 -16 -3
-26 -14z"/>
<path d="M7280 10720 c0 -5 5 -10 10 -10 6 0 10 5 10 10 0 6 -4 10 -10 10 -5
0 -10 -4 -10 -10z"/>
<path d="M7373 9824 c-4 -12 2 -24 23 -41 28 -22 84 -32 84 -15 0 4 27 14 60
20 51 11 80 26 69 37 -2 1 -55 6 -116 10 -103 7 -113 6 -120 -11z"/>
<path d="M7127 9813 c-15 -14 -6 -41 16 -47 36 -10 47 -7 47 12 0 32 -43 56
-63 35z"/>
<path d="M7616 9783 c-9 -10 -7 -63 3 -63 11 0 20 59 11 65 -4 3 -10 2 -14 -2z"/>
<path d="M7657 9756 c-4 -10 -1 -13 9 -9 15 6 19 23 5 23 -5 0 -11 -7 -14 -14z"/>
<path d="M6922 11175 c0 -16 2 -22 5 -12 2 9 2 23 0 30 -3 6 -5 -1 -5 -18z"/>
<path d="M6114 11728 c19 -273 51 -1380 42 -1445 -3 -25 -13 -60 -22 -78 -41
-86 -192 -85 -237 2 -27 52 -35 108 -46 318 -6 116 -14 260 -17 320 -4 61 -16
301 -28 535 l-21 425 -50 -3 c-81 -4 -559 -64 -567 -71 -6 -5 0 -183 27 -806
15 -351 37 -677 50 -751 26 -141 71 -247 151 -361 59 -83 132 -145 229 -193
110 -55 178 -71 330 -77 493 -19 767 204 824 675 12 98 0 894 -19 1302 -6 113
-10 226 -10 253 l0 47 -321 0 -321 0 6 -92z m-424 37 c8 -9 12 -48 11 -113 -1
-78 2 -102 14 -112 9 -7 13 -20 10 -29 -8 -28 9 -45 34 -32 17 10 21 9 21 -4
0 -8 -7 -15 -15 -15 -22 0 -33 -30 -30 -87 2 -40 -1 -53 -11 -53 -8 0 -14 -8
-14 -17 0 -18 16 -323 25 -463 2 -41 4 -79 5 -83 0 -5 5 -5 10 -2 6 3 10 2 10
-4 0 -5 -5 -11 -11 -13 -6 -2 -9 -17 -6 -33 4 -28 5 -28 12 -8 4 12 16 25 26
28 10 4 19 11 19 18 0 7 3 7 9 2 13 -14 21 -136 10 -157 -6 -10 -5 -19 1 -23
5 -3 10 -13 10 -20 0 -12 -6 -12 -26 -4 -15 5 -29 8 -31 6 -8 -8 10 -37 23
-37 8 0 14 -4 14 -10 0 -5 -7 -10 -16 -10 -8 0 -22 -6 -29 -14 -12 -12 -10
-16 16 -26 17 -7 37 -20 45 -27 19 -19 7 -38 -13 -21 -9 7 -34 20 -57 29 -35
14 -41 21 -42 48 0 17 -3 34 -7 37 -13 13 -7 41 14 68 26 34 21 41 -17 22 -33
-18 -43 -13 -22 11 12 15 13 47 6 208 -4 105 -10 275 -12 380 -3 115 -9 191
-15 193 -16 5 11 42 31 42 9 0 20 5 24 12 5 8 0 9 -14 6 -18 -5 -23 -1 -28 20
-3 15 -8 34 -11 42 -6 19 -12 242 -6 253 7 11 19 8 33 -8z m1000 -5 c0 -5 -7
-10 -15 -10 -8 0 -15 5 -15 10 0 6 7 10 15 10 8 0 15 -4 15 -10z m-1182 -101
c-3 -8 -7 -3 -11 10 -4 17 -3 21 5 13 5 -5 8 -16 6 -23z m1220 14 c-2 -9 -15
-17 -33 -19 -17 -2 -62 -11 -100 -19 -39 -9 -97 -20 -130 -25 -51 -7 -243 -50
-297 -66 -11 -3 -18 0 -18 9 0 10 31 21 108 36 154 32 365 81 380 89 8 4 32 8
54 9 32 2 39 -1 36 -14z m-1408 -18 c-7 -8 -16 -15 -21 -15 -5 0 -9 7 -9 15 0
9 9 15 21 15 18 0 19 -2 9 -15z m82 -15 c5 0 2 -7 -6 -16 -9 -8 -16 -20 -16
-25 0 -5 -4 -9 -10 -9 -5 0 -10 14 -10 31 0 24 3 30 16 25 9 -3 20 -6 26 -6z
m1248 -29 c0 -5 -7 -12 -16 -15 -14 -5 -15 -4 -4 9 14 17 20 19 20 6z m-130
-51 c0 -5 -4 -10 -10 -10 -5 0 -10 5 -10 10 0 6 5 10 10 10 6 0 10 -4 10 -10z
m-883 -16 c-3 -3 -12 -4 -19 -1 -8 3 -5 6 6 6 11 1 17 -2 13 -5z m660 -19 c8
-22 -6 -33 -17 -15 -13 20 -12 30 0 30 6 0 13 -7 17 -15z m443 -15 c0 -11 -9
-25 -20 -32 -11 -7 -20 -16 -20 -20 0 -13 -47 -58 -61 -59 -9 0 -10 -2 -2 -5
6 -3 31 9 55 26 26 19 44 27 46 20 5 -14 13 -5 -113 -110 -91 -76 -183 -155
-256 -220 -15 -14 -39 -33 -54 -43 -14 -10 -24 -26 -23 -35 2 -11 -4 -17 -17
-18 -29 -1 -55 -14 -55 -28 0 -7 -12 -18 -26 -25 -25 -11 -26 -11 -20 14 4 14
1 35 -5 47 -10 19 -5 28 60 90 39 37 74 68 76 68 6 0 58 45 89 76 12 12 48 44
81 72 33 27 79 68 103 90 23 23 42 39 42 36 0 -3 21 13 48 35 52 45 72 51 72
21z m-150 -10 c0 -5 -2 -10 -4 -10 -3 0 -8 5 -11 10 -3 6 -1 10 4 10 6 0 11
-4 11 -10z m-813 -122 c-3 -7 -5 -2 -5 12 0 14 2 19 5 13 2 -7 2 -19 0 -25z
m-231 -75 c-8 -8 -36 5 -36 17 0 7 6 7 21 0 11 -7 18 -14 15 -17z m814 -23 c0
-5 -4 -10 -10 -10 -5 0 -10 5 -10 10 0 6 5 10 10 10 6 0 10 -4 10 -10z m-1090
-9 c0 -11 -29 -35 -35 -29 -10 9 7 38 21 38 8 0 14 -4 14 -9z m25 -1 c3 -5 1
-10 -4 -10 -6 0 -11 5 -11 10 0 6 2 10 4 10 3 0 8 -4 11 -10z m83 -49 c3 -8
-1 -12 -9 -9 -7 2 -15 10 -17 17 -3 8 1 12 9 9 7 -2 15 -10 17 -17z m102 -6
c0 -8 -7 -15 -15 -15 -26 0 -18 20 13 29 1 1 2 -6 2 -14z m60 -27 c0 -6 -7 -5
-15 2 -8 7 -15 17 -15 22 0 6 7 5 15 -2 8 -7 15 -17 15 -22z m-3 -64 c3 -8 3
-18 -1 -21 -8 -9 -33 15 -39 37 -4 17 -2 18 15 9 10 -6 22 -17 25 -25z m-66 3
c8 -7 18 -20 22 -29 9 -25 -24 -23 -54 3 -19 17 -21 22 -9 29 19 12 22 12 41
-3z m987 1 c-3 -7 -11 -13 -18 -13 -7 0 -15 6 -17 13 -3 7 4 12 17 12 13 0 20
-5 18 -12z m144 -29 c2 7 8 7 18 1 11 -7 12 -12 3 -21 -15 -15 -53 -2 -53 18
0 12 3 13 14 4 9 -8 15 -8 18 -2z m-1164 -14 c3 -2 -1 -11 -8 -20 -9 -11 -17
-12 -31 -4 -11 5 -24 7 -29 4 -15 -9 -24 17 -9 26 13 9 67 5 77 -6z m1246 -1
c9 -3 16 -15 16 -25 0 -27 -13 -24 -27 6 -12 27 -12 28 11 19z m-1338 -28 c9
-20 8 -23 -7 -19 -19 5 -33 43 -16 43 7 0 17 -11 23 -24z m194 14 c0 -5 -5
-10 -11 -10 -5 0 -7 5 -4 10 3 6 8 10 11 10 2 0 4 -4 4 -10z m-240 -31 c0 -5
-4 -9 -10 -9 -5 0 -10 7 -10 16 0 8 5 12 10 9 6 -3 10 -10 10 -16z m1350 11
c0 -5 -4 -10 -10 -10 -5 0 -10 5 -10 10 0 6 5 10 10 10 6 0 10 -4 10 -10z m80
0 c0 -5 -4 -10 -10 -10 -5 0 -10 5 -10 10 0 6 5 10 10 10 6 0 10 -4 10 -10z
m-6 -65 c-7 -16 -54 -21 -54 -6 0 5 9 7 20 4 11 -3 20 0 20 6 0 6 4 11 10 11
5 0 7 -7 4 -15z m-1431 -32 c10 -23 13 -39 7 -41 -6 -2 -8 -9 -5 -15 3 -7 -2
-2 -11 11 -9 12 -22 22 -30 22 -18 0 -26 17 -19 40 10 32 39 24 58 -17z m1357
7 c0 -5 -4 -10 -10 -10 -5 0 -10 5 -10 10 0 6 5 10 10 10 6 0 10 -4 10 -10z
m-437 -30 c-5 -19 -23 -29 -23 -12 0 7 20 32 26 32 1 0 0 -9 -3 -20z m22 -30
c-33 -48 -45 -57 -45 -35 0 16 61 87 69 79 2 -2 -9 -22 -24 -44z m473 5 c36
-49 39 -57 18 -49 -22 8 -31 -17 -12 -32 25 -18 11 -36 -21 -28 -18 5 -24 3
-19 -5 4 -6 18 -11 32 -11 25 0 33 -15 12 -23 -8 -3 -6 -6 5 -6 17 -1 22 -12
10 -24 -3 -4 -12 -2 -20 5 -15 12 -29 3 -35 -21 -2 -9 10 -15 37 -18 21 -2 41
-6 43 -8 8 -8 -9 -75 -19 -75 -9 0 -23 15 -54 55 -13 17 -16 18 -25 5 -6 -10
-10 -11 -10 -2 0 6 -4 12 -10 12 -5 0 -10 -9 -10 -20 0 -27 -40 -48 -54 -28
-6 8 -17 13 -25 10 -10 -3 -12 0 -8 12 4 10 7 22 7 28 0 6 9 8 20 5 30 -8 32
7 4 34 -21 20 -27 21 -34 9 -5 -8 -10 -21 -10 -27 0 -7 -7 -13 -16 -13 -10 0
-14 6 -11 14 3 8 1 17 -6 19 -7 2 -9 7 -6 11 6 7 88 24 142 30 38 4 43 12 12
20 -31 8 -33 28 -2 24 18 -2 21 1 19 20 -2 12 2 22 8 22 7 0 10 7 7 15 -4 8
-2 17 3 20 16 10 12 35 -5 35 -8 0 -15 7 -15 15 0 25 13 16 48 -30z m-908 21
c0 -3 -4 -8 -10 -11 -5 -3 -10 -1 -10 4 0 6 5 11 10 11 6 0 10 -2 10 -4z m-36
-31 c3 -8 1 -15 -4 -15 -6 0 -10 7 -10 15 0 8 2 15 4 15 2 0 6 -7 10 -15z
m891 5 c3 -5 1 -10 -4 -10 -6 0 -11 5 -11 10 0 6 2 10 4 10 3 0 8 -4 11 -10z
m-1401 -18 c-1 -7 -2 -21 -2 -33 -3 -31 -22 -12 -22 22 0 20 4 29 13 27 6 -3
12 -10 11 -16z m555 -15 c0 -21 -1 -21 -9 -2 -12 28 -12 37 0 30 6 -3 10 -16
9 -28z m528 -2 c3 -9 3 -18 1 -21 -9 -9 -38 8 -38 22 0 19 29 18 37 -1z m-883
-40 c19 -14 19 -15 -6 -15 -14 0 -28 7 -32 15 -7 19 13 19 38 0z m335 1 c7 -9
8 -17 2 -20 -14 -9 -41 4 -41 20 0 18 24 18 39 0z m431 -7 c0 -4 -7 -6 -15 -3
-8 4 -15 10 -15 15 0 4 7 6 15 3 8 -4 15 -10 15 -15z m180 11 c0 -5 -4 -10
-10 -10 -5 0 -10 5 -10 10 0 6 5 10 10 10 6 0 10 -4 10 -10z m30 -20 c0 -5 -2
-10 -4 -10 -3 0 -8 5 -11 10 -3 6 -1 10 4 10 6 0 11 -4 11 -10z m-80 -20 c0
-5 -7 -10 -16 -10 -8 0 -12 5 -9 10 3 6 10 10 16 10 5 0 9 -4 9 -10z m230 -11
c0 -5 -4 -9 -10 -9 -5 0 -10 7 -10 16 0 8 5 12 10 9 6 -3 10 -10 10 -16z
m-1100 1 c0 -5 -4 -10 -10 -10 -5 0 -10 5 -10 10 0 6 5 10 10 10 6 0 10 -4 10
-10z m330 -5 c0 -8 -7 -15 -16 -15 -14 0 -14 3 -4 15 7 8 14 15 16 15 2 0 4
-7 4 -15z m655 5 c3 -5 1 -10 -4 -10 -6 0 -11 5 -11 10 0 6 2 10 4 10 3 0 8
-4 11 -10z m-196 -44 c15 -18 15 -18 -6 -8 -27 15 -37 -5 -17 -33 14 -18 14
-18 14 0 0 15 2 17 13 6 17 -18 -19 -43 -58 -39 -35 4 -50 38 -16 38 22 0 25
8 15 34 -3 8 -12 12 -20 9 -9 -3 -14 1 -14 12 0 10 6 15 13 12 6 -2 21 -1 32
3 12 4 22 3 24 -4 2 -6 11 -20 20 -30z m40 30 c8 -10 8 -16 -2 -24 -10 -8 -13
-5 -15 14 -2 28 1 30 17 10z m59 -13 c-2 -10 -11 -19 -21 -21 -16 -3 -17 -1
-5 17 16 25 31 27 26 4z m-798 -17 c0 -3 -4 -8 -10 -11 -5 -3 -10 -1 -10 4 0
6 5 11 10 11 6 0 10 -2 10 -4z m895 -15 c-8 -13 -35 -15 -35 -2 0 5 8 11 18
13 21 5 26 2 17 -11z m-58 2 c-12 -3 -16 -10 -13 -20 5 -11 2 -13 -10 -9 -8 3
-22 6 -30 6 -8 0 -14 4 -14 9 0 11 25 19 60 19 17 0 19 -2 7 -5z m-92 -23 c-3
-5 -10 -10 -16 -10 -5 0 -9 5 -9 10 0 6 7 10 16 10 8 0 12 -4 9 -10z m345 -76
c0 -8 -4 -14 -10 -14 -5 0 -10 9 -10 21 0 11 5 17 10 14 6 -3 10 -13 10 -21z
m-1210 -4 c0 -5 -4 -10 -9 -10 -6 0 -13 5 -16 10 -3 6 1 10 9 10 9 0 16 -4 16
-10z m1090 -46 c0 -9 -5 -14 -12 -12 -18 6 -21 28 -4 28 9 0 16 -7 16 -16z
m-1069 -67 c-8 -8 -11 -3 -11 19 1 25 2 27 11 11 8 -14 8 -22 0 -30z m-71 13
c0 -5 -4 -10 -9 -10 -6 0 -13 5 -16 10 -3 6 1 10 9 10 9 0 16 -4 16 -10z m-90
-10 c0 -5 -4 -10 -10 -10 -5 0 -10 5 -10 10 0 6 5 10 10 10 6 0 10 -4 10 -10z
m987 -32 c-3 -8 -6 -5 -6 6 -1 11 2 17 5 13 3 -3 4 -12 1 -19z m113 6 c0 -8
-4 -12 -10 -9 -5 3 -10 10 -10 16 0 5 5 9 10 9 6 0 10 -7 10 -16z m-167 -44
c9 -11 23 -17 32 -14 8 4 15 1 15 -6 0 -10 3 -10 15 0 12 10 15 10 15 0 0 -7
9 -10 23 -7 12 3 31 1 42 -4 19 -9 18 -9 -2 -5 -13 2 -25 0 -28 -4 -3 -4 -14
-6 -24 -3 -10 3 -22 0 -25 -6 -9 -14 23 -28 59 -25 17 1 48 -2 70 -7 22 -4 85
-11 140 -14 55 -4 118 -10 140 -14 37 -6 40 -9 43 -41 l4 -35 -24 22 c-21 20
-37 23 -150 27 -70 2 -132 7 -138 11 -6 4 -37 9 -68 11 -138 10 -181 16 -192
29 -6 8 -7 16 -2 19 5 3 7 17 5 30 -4 22 12 55 27 56 3 0 13 -9 23 -20z m-673
-21 c0 -11 -27 -12 -34 0 -3 4 -3 11 0 14 8 8 34 -3 34 -14z m192 -156 c2 -92
6 -123 15 -123 7 0 13 5 13 11 0 8 6 7 17 -2 9 -8 18 -13 20 -11 1 1 13 2 26
2 18 0 19 -2 7 -10 -13 -8 -12 -10 3 -10 9 0 17 -7 17 -15 0 -12 4 -14 19 -5
23 12 36 -2 27 -27 -5 -12 -16 -14 -44 -11 -33 5 -37 3 -38 -18 -1 -13 2 -24
7 -24 5 0 9 -9 9 -20 0 -11 -4 -20 -9 -20 -11 0 -36 30 -25 30 5 0 0 8 -11 16
-19 14 -19 16 -3 28 20 15 18 45 -5 58 -32 17 -37 -1 -35 -124 2 -106 4 -123
22 -139 15 -15 17 -22 8 -31 -9 -9 -12 -9 -12 2 0 7 -3 10 -7 6 -4 -4 -6 -58
-4 -120 3 -116 -4 -140 -32 -111 -12 11 -16 44 -16 147 -1 73 -3 180 -6 238
-17 388 -17 413 -3 421 27 17 37 -15 40 -138z m698 127 c12 -8 11 -10 -7 -10
-13 0 -23 5 -23 10 0 13 11 13 30 0z m210 -15 c-7 -9 -15 -13 -17 -11 -7 7 7
26 19 26 6 0 6 -6 -2 -15z m-1160 -40 c0 -19 -13 -25 -40 -18 l-23 6 24 18
c25 19 39 17 39 -6z m325 -15 c-3 -5 -11 -10 -16 -10 -6 0 -7 5 -4 10 3 6 11
10 16 10 6 0 7 -4 4 -10z m446 -14 c5 3 9 0 9 -5 0 -6 7 -11 14 -11 18 0 77
-61 70 -72 -9 -13 -24 -9 -24 7 0 14 -5 16 -27 14 -10 -1 -4 -30 9 -46 7 -8
16 -10 27 -3 13 7 24 2 45 -21 35 -36 28 -48 -11 -20 -31 22 -70 31 -71 17 0
-5 -5 -12 -11 -15 -6 -4 14 -20 43 -35 30 -16 59 -25 65 -22 6 4 11 3 11 -2 0
-5 9 -12 21 -15 12 -3 19 -9 16 -14 -3 -5 8 -16 24 -25 16 -10 29 -13 29 -7 0
5 -6 12 -14 15 -8 3 -13 16 -12 29 1 20 5 23 26 18 36 -8 43 -14 31 -26 -7 -7
-7 -15 1 -25 9 -10 9 -15 -1 -22 -11 -6 -9 -10 7 -19 27 -14 32 -14 26 3 -3 8
0 17 6 21 8 5 8 11 -1 21 -9 11 -8 15 5 20 9 3 13 10 10 15 -3 5 -9 7 -14 4
-5 -3 -12 1 -17 9 -4 8 -17 14 -27 13 -13 -1 -19 5 -21 21 -1 13 -7 27 -14 31
-9 6 -8 11 2 20 9 7 13 21 10 32 -5 19 -4 20 15 8 11 -7 18 -18 15 -25 -2 -6
1 -15 7 -19 6 -4 8 -15 5 -26 -5 -14 -2 -19 13 -19 10 0 28 -10 40 -22 43 -46
59 -58 75 -58 27 0 20 27 -9 34 -29 8 -54 29 -54 45 0 6 -8 11 -17 12 -11 0
-13 3 -5 6 6 2 12 10 13 16 0 7 16 25 36 41 l35 30 -4 -50 c-3 -39 -7 -49 -21
-48 -9 1 -14 -2 -11 -8 3 -5 15 -8 27 -6 16 2 22 -2 21 -15 -2 -13 3 -16 17
-12 12 4 19 2 19 -8 0 -15 -37 -52 -59 -59 -11 -3 -9 -9 8 -25 23 -21 23 -22
5 -55 -11 -18 -20 -35 -21 -37 -1 -2 -16 7 -32 19 -28 19 -32 20 -47 6 -26
-26 -47 -20 -41 12 5 24 0 30 -39 54 -37 23 -48 25 -76 17 -54 -15 -65 -12
-70 21 -2 16 0 31 5 33 6 2 -22 20 -62 40 -56 29 -71 33 -71 21 0 -11 -6 -15
-20 -11 -25 6 -26 -9 -2 -21 20 -10 32 -10 50 2 9 5 20 1 34 -13 l19 -22 -25
7 c-33 8 -96 -3 -96 -17 0 -6 5 -9 12 -7 11 4 48 -25 48 -38 0 -3 -11 -3 -24
0 -15 4 -26 1 -28 -6 -3 -7 -11 -9 -24 -4 -18 7 -17 9 6 18 l25 11 -35 9 c-60
16 -120 47 -120 63 0 19 19 19 39 1 9 -7 27 -17 41 -21 23 -6 23 -5 -5 14 -16
12 -24 21 -17 21 6 0 12 9 12 21 0 15 5 19 18 15 14 -5 17 1 18 40 2 55 14 70
42 55 11 -6 30 -11 41 -11 12 0 21 -4 21 -10 0 -5 -4 -10 -9 -10 -5 0 -7 -9
-4 -20 3 -11 14 -20 23 -20 14 0 18 6 15 28 -2 15 -4 32 -4 37 -1 6 -13 10
-28 9 -36 -1 -83 17 -83 33 0 20 31 31 63 22 16 -5 34 -6 38 -3z m111 -36 c4
0 8 -6 8 -12 -1 -7 -12 0 -25 16 -13 17 -21 35 -17 40 3 6 11 -1 16 -16 5 -16
13 -28 18 -28z m-1082 25 c7 -9 9 -19 5 -23 -4 -4 -10 -1 -12 6 -3 6 -9 9 -15
6 -7 -4 -7 -9 0 -13 6 -3 14 -19 18 -34 6 -26 4 -28 -15 -25 -12 1 -20 8 -19
13 2 6 6 9 11 8 4 -2 7 2 7 7 0 6 -4 10 -9 10 -10 0 -22 40 -15 52 8 13 30 9
44 -7z m120 -5 c0 -5 -4 -10 -10 -10 -5 0 -10 5 -10 10 0 6 5 10 10 10 6 0 10
-4 10 -10z m1104 -6 c8 -22 8 -24 -8 -24 -15 0 -28 24 -19 34 11 10 21 7 27
-10z m-1170 -25 c-8 -14 -34 -10 -34 5 0 9 7 12 20 9 11 -3 17 -9 14 -14z
m242 -140 c19 -463 19 -469 7 -469 -7 0 -13 11 -13 24 0 30 -9 36 -57 40 -28
3 -47 14 -80 47 -43 43 -59 87 -27 75 9 -3 20 -6 25 -6 5 0 9 -9 9 -19 0 -11
5 -23 10 -26 6 -3 10 -2 10 4 0 6 12 14 26 17 23 6 26 10 21 40 -5 32 -4 33
14 23 21 -11 41 -51 30 -59 -13 -9 -10 -49 5 -61 22 -18 21 193 -2 215 -8 9
-11 16 -5 16 7 0 11 49 11 147 0 80 2 144 5 142 2 -3 7 -70 11 -150z m242 97
c5 -6 12 -19 15 -29 6 -16 4 -16 -24 -2 -16 9 -34 13 -39 10 -6 -3 -10 3 -10
13 0 14 7 20 25 20 13 0 29 -6 33 -12z m591 -12 c3 -16 1 -17 -13 -5 -19 16
-21 34 -3 29 6 -3 14 -13 16 -24z m311 -4 c0 -5 -7 -10 -15 -10 -8 0 -15 5
-15 10 0 6 7 10 15 10 8 0 15 -4 15 -10z m-1425 -9 c3 -5 1 -12 -5 -16 -5 -3
-10 1 -10 9 0 18 6 21 15 7z m1151 -10 c-3 -5 5 -20 18 -34 27 -29 25 -37 -5
-30 -26 7 -45 53 -27 65 17 10 20 10 14 -1z m-916 -16 c0 -8 -4 -15 -10 -15
-5 0 -10 7 -10 15 0 8 5 15 10 15 6 0 10 -7 10 -15z m-200 -5 c0 -5 -4 -10
-10 -10 -5 0 -10 5 -10 10 0 6 5 10 10 10 6 0 10 -4 10 -10z m555 -10 c3 -5
-3 -10 -14 -10 -11 0 -23 5 -26 10 -3 6 3 10 14 10 11 0 23 -4 26 -10z m75
-75 c0 -8 -7 -15 -15 -15 -8 0 -15 7 -15 15 0 8 7 15 15 15 8 0 15 -7 15 -15z
m60 -5 c0 -5 -4 -10 -10 -10 -5 0 -10 -5 -10 -10 0 -6 16 -8 42 -4 30 5 39 4
34 -5 -6 -8 0 -10 18 -5 24 6 26 3 26 -24 0 -17 4 -42 10 -56 7 -21 6 -26 -5
-26 -9 0 -15 9 -15 23 0 12 -7 31 -16 42 -13 17 -16 18 -25 5 -8 -11 -12 -12
-16 -2 -2 6 -9 12 -14 12 -6 0 -7 -4 -4 -10 3 -5 1 -10 -6 -10 -6 0 -17 -7
-24 -16 -10 -14 -15 -15 -35 -4 -13 7 -44 14 -68 16 -50 3 -47 2 -56 32 -6 18
-4 22 14 22 12 0 19 -4 16 -9 -6 -9 39 -21 76 -21 16 0 18 3 9 13 -8 10 -6 19
10 35 20 23 49 30 49 12z m273 -18 c3 7 4 2 2 -12 -2 -14 -4 -31 -4 -37 -1
-20 -19 -15 -31 8 -15 28 -5 56 14 40 11 -9 15 -9 19 1z m137 -64 c7 -13 13
-33 11 -45 -1 -13 2 -23 7 -23 5 0 8 -10 8 -22 -1 -16 4 -23 17 -22 10 1 17
-5 17 -15 0 -17 -33 -51 -49 -51 -13 0 -22 30 -16 50 3 10 -1 25 -10 33 -8 9
-15 23 -15 32 0 12 -6 15 -21 10 l-20 -7 21 41 c24 47 30 49 50 19z m-1102
-17 c3 -8 -1 -12 -9 -9 -7 2 -15 10 -17 17 -3 8 1 12 9 9 7 -2 15 -10 17 -17z
m100 -9 c2 -12 -1 -22 -6 -22 -14 0 -43 36 -35 44 14 13 38 1 41 -22z m82 8
c0 -5 -5 -10 -11 -10 -5 0 -7 5 -4 10 3 6 8 10 11 10 2 0 4 -4 4 -10z m689
-17 c8 -15 12 -16 22 -5 23 22 29 13 23 -35 -5 -47 -14 -72 -14 -41 0 21 -50
30 -67 12 -8 -8 -21 -14 -29 -14 -23 0 -13 33 13 45 17 7 21 15 17 32 -7 28
20 32 35 6z m139 -19 c7 -13 7 -24 2 -24 -13 0 -40 30 -40 45 0 21 26 7 38
-21z m-430 -2 c17 -23 15 -35 -5 -27 -10 4 -26 10 -35 12 -10 3 -18 14 -18 25
0 15 5 18 23 13 12 -4 28 -14 35 -23z m-460 -19 c-8 -8 -22 -11 -32 -7 -15 6
-14 8 6 19 29 15 45 8 26 -12z m350 -4 c12 -19 11 -19 -8 -9 -11 6 -20 15 -20
20 0 17 15 11 28 -11z m295 -19 c-3 -11 -12 -20 -19 -20 -8 0 -14 -4 -14 -10
0 -5 6 -9 13 -7 7 1 11 -8 10 -25 -1 -26 0 -26 30 -16 18 6 35 16 39 22 4 6
10 7 14 3 4 -4 -1 -16 -10 -26 -19 -21 -14 -41 8 -41 8 0 13 7 12 16 0 9 5 19
12 21 7 3 12 -3 12 -14 0 -10 11 -31 25 -48 14 -16 22 -22 19 -13 -4 13 -1 15
15 11 12 -3 21 -1 21 6 0 6 -4 11 -10 11 -5 0 -10 7 -10 15 0 18 14 19 41 4
11 -5 16 -15 13 -21 -5 -7 -1 -9 9 -5 10 4 17 1 18 -6 0 -7 2 -21 4 -31 2 -11
2 -23 -1 -27 -9 -15 -33 3 -36 27 -4 36 -23 29 -23 -8 0 -23 5 -33 15 -33 8 0
21 -6 29 -13 12 -12 12 -15 0 -23 -23 -14 -36 -10 -58 17 l-21 27 0 -27 c0
-16 5 -26 15 -26 8 0 15 -7 15 -15 0 -24 -19 -18 -32 10 -9 20 -16 23 -36 18
-21 -5 -24 -3 -19 11 8 20 3 20 -17 0 -21 -21 -20 -34 3 -34 25 0 38 -20 20
-31 -28 -18 -38 -12 -82 41 -10 12 -16 28 -13 35 3 9 -4 15 -17 17 -12 2 -21
9 -19 16 1 6 -5 12 -13 12 -8 0 -15 7 -15 16 0 13 -3 14 -15 4 -12 -10 -19 -7
-39 16 -21 25 -26 27 -41 14 -15 -13 -19 -12 -31 5 -8 10 -14 16 -14 12 0 -18
-2 -23 -17 -40 -18 -19 -9 -37 9 -19 18 18 30 14 23 -8 -6 -20 9 -28 20 -10 3
6 23 10 43 10 28 0 33 -3 22 -10 -13 -9 -12 -12 4 -25 10 -8 23 -12 29 -8 12
7 27 -16 27 -44 0 -12 10 -27 22 -34 38 -20 -3 -30 -96 -23 -74 6 -86 10 -86
25 0 10 -4 21 -10 24 -5 3 -10 1 -10 -5 0 -6 -8 -10 -18 -8 -11 2 -27 -3 -36
-11 -13 -11 -20 -11 -28 -3 -9 9 -8 12 3 12 8 0 15 11 16 26 0 15 8 33 17 42
14 14 17 14 36 -3 20 -18 25 -11 14 19 -3 9 -14 16 -24 16 -10 0 -20 9 -23 20
-3 12 -14 20 -25 20 -15 0 -20 6 -18 25 1 28 16 35 16 7 0 -10 8 -18 19 -19
14 -1 17 3 14 18 -3 10 0 19 6 19 6 0 11 -5 11 -11 0 -5 5 -7 10 -4 7 4 7 12
0 25 -5 10 -10 28 -10 39 0 10 -5 21 -12 23 -12 4 -3 28 11 28 5 0 19 -15 32
-34 17 -25 27 -32 35 -25 8 7 14 6 19 0 8 -13 45 9 45 26 0 7 6 13 14 13 7 0
20 7 27 16 15 18 50 34 61 28 3 -2 4 -13 1 -24z m497 15 c0 -8 -7 -15 -15 -15
-8 0 -15 -7 -15 -15 0 -8 -4 -15 -10 -15 -13 0 -13 3 2 35 12 27 38 34 38 10z
m-300 -45 c6 0 8 -4 5 -10 -9 -15 -25 -12 -25 4 0 8 -5 16 -12 18 -7 3 -8 9
-3 18 6 10 10 8 16 -8 5 -12 13 -22 19 -22z m340 27 c0 -16 -26 -55 -59 -87
-14 -14 -34 -38 -44 -53 -16 -24 -20 -26 -40 -15 -20 11 -20 13 -4 16 10 2 22
15 28 29 7 19 15 24 29 20 16 -4 20 0 20 19 0 17 6 24 20 24 14 0 20 7 20 23
0 13 3 27 7 30 11 11 23 8 23 -6z m-670 -7 c0 -5 -4 -10 -10 -10 -5 0 -10 5
-10 10 0 6 5 10 10 10 6 0 10 -4 10 -10z m-566 -17 c-20 -15 -36 -13 -41 4 -3
7 8 11 28 11 29 -1 30 -2 13 -15z m926 -53 c0 -11 -4 -20 -10 -20 -5 0 -10 2
-10 4 0 2 -3 11 -6 20 -4 11 -1 16 10 16 9 0 16 -8 16 -20z m110 -40 c0 -5 -4
-10 -10 -10 -5 0 -10 5 -10 10 0 6 5 10 10 10 6 0 10 -4 10 -10z m-58 -32 c-7
-7 -12 -8 -12 -2 0 14 12 26 19 19 2 -3 -1 -11 -7 -17z m68 -58 c0 -5 -6 -10
-14 -10 -8 0 -18 5 -21 10 -3 6 3 10 14 10 12 0 21 -4 21 -10z m-60 -31 c0 -6
-4 -7 -10 -4 -5 3 -10 11 -10 16 0 6 5 7 10 4 6 -3 10 -11 10 -16z"/>
<path d="M6600 11359 c0 -5 5 -7 10 -4 6 3 10 8 10 11 0 2 -4 4 -10 4 -5 0
-10 -5 -10 -11z"/>
<path d="M6552 11333 c-7 -2 -17 -14 -23 -25 -11 -20 -11 -20 20 -2 40 24 43
43 3 27z"/>
<path d="M6461 11253 c-12 -14 -19 -28 -17 -31 6 -6 54 30 60 46 10 23 -22 12
-43 -15z"/>
<path d="M6415 11212 c-5 -4 -17 -16 -25 -26 -15 -19 -14 -19 13 -2 15 10 27
22 27 27 0 11 -2 11 -15 1z"/>
<path d="M6335 11140 c-3 -5 -1 -10 4 -10 6 0 11 5 11 10 0 6 -2 10 -4 10 -3
0 -8 -4 -11 -10z"/>
<path d="M6294 11105 c-10 -8 -14 -14 -9 -14 6 0 19 6 29 14 11 8 15 15 10 15
-6 0 -19 -7 -30 -15z"/>
<path d="M6260 11069 c0 -5 5 -7 10 -4 6 3 10 8 10 11 0 2 -4 4 -10 4 -5 0
-10 -5 -10 -11z"/>
<path d="M5260 10951 c0 -5 5 -13 10 -16 6 -3 10 -2 10 4 0 5 -4 13 -10 16 -5
3 -10 2 -10 -4z"/>
<path d="M6607 10744 c-8 -8 1 -24 13 -24 4 0 10 7 14 15 5 15 -14 21 -27 9z"/>
<path d="M6210 10406 c0 -8 7 -17 16 -20 28 -11 54 -6 54 9 0 18 -17 20 -22 4
-3 -8 -10 -6 -20 5 -20 20 -28 20 -28 2z"/>
<path d="M6649 9973 c-13 -16 -12 -17 4 -4 9 7 17 15 17 17 0 8 -8 3 -21 -13z"/>
<path d="M6045 9781 c-3 -5 -1 -12 5 -16 5 -3 10 1 10 9 0 18 -6 21 -15 7z"/>
<path d="M6105 9751 c-3 -5 -1 -12 5 -16 12 -7 30 2 30 16 0 12 -27 12 -35 0z"/>
<path d="M6174 9712 c1 -19 6 -29 16 -28 25 2 30 20 10 38 -25 24 -27 23 -26
-10z"/>
<path d="M5955 9650 c-3 -5 -1 -10 4 -10 6 0 11 5 11 10 0 6 -2 10 -4 10 -3 0
-8 -4 -11 -10z"/>
<path d="M5954 9595 c21 -16 32 -13 21 4 -3 6 -14 11 -23 11 -15 -1 -15 -2 2
-15z"/>
<path d="M8150 11528 c0 -128 3 -243 6 -255 5 -20 14 -22 122 -28 65 -4 137
-10 162 -13 l45 -7 6 -105 c23 -360 19 -1114 -6 -1477 -3 -52 -1 -63 13 -67
29 -9 512 -49 518 -43 3 3 12 61 19 129 8 67 24 188 36 268 18 121 22 209 27
535 3 215 6 461 6 548 l0 158 70 -6 c39 -2 113 -7 165 -10 l93 -6 -7 118 c-4
65 -8 178 -9 250 -2 73 -4 135 -7 137 -2 2 -45 9 -94 15 -50 5 -148 17 -220
25 -245 29 -740 65 -892 66 l-53 0 0 -232z m135 182 c18 0 25 -5 25 -20 0 -11
-7 -20 -15 -20 -22 0 -18 -17 7 -34 33 -23 84 -21 91 4 3 11 11 20 17 20 8 0
10 -9 6 -23 -5 -21 0 -25 47 -39 32 -10 56 -13 62 -7 5 5 18 9 28 9 16 0 18 5
12 28 -11 43 -11 55 3 59 7 3 12 -5 12 -21 0 -16 6 -26 15 -26 21 0 19 -18 -5
-32 -22 -14 -27 -38 -7 -38 7 0 18 5 25 12 9 9 12 7 12 -10 0 -16 8 -23 35
-28 19 -3 41 -4 49 -1 8 3 17 0 20 -8 2 -7 31 -18 63 -25 32 -6 67 -15 78 -20
20 -9 217 -64 420 -116 l110 -29 3 -39 c3 -29 0 -37 -10 -34 -7 3 -56 15 -108
28 -52 12 -144 35 -205 51 -60 15 -130 31 -155 34 -57 8 -147 33 -180 50 -14
7 -45 16 -70 20 -25 4 -97 20 -160 37 -63 16 -162 42 -220 56 l-105 27 -1 70
c-2 85 7 100 47 80 15 -8 39 -15 54 -15z m325 -10 c0 -5 -5 -10 -11 -10 -5 0
-7 5 -4 10 3 6 8 10 11 10 2 0 4 -4 4 -10z m82 -7 c19 -17 26 -69 7 -58 -6 4
-19 -2 -30 -14 -11 -12 -24 -21 -28 -21 -13 0 -21 39 -9 46 5 3 7 18 4 33 -4
17 -3 21 2 13 8 -11 10 -11 15 2 8 20 16 20 39 -1z m-157 -3 c3 -5 1 -10 -4
-10 -6 0 -11 5 -11 10 0 6 2 10 4 10 3 0 8 -4 11 -10z m-10 -31 c11 -17 2 -18
-19 -3 -17 12 -17 14 -4 14 9 0 20 -5 23 -11z m-133 -169 c95 -23 247 -62 338
-87 91 -25 219 -61 285 -79 66 -19 176 -46 245 -60 129 -26 158 -40 146 -70
-5 -13 -14 -15 -49 -10 -23 4 -95 9 -159 12 -64 2 -128 8 -142 14 -16 6 -27 6
-31 0 -9 -15 -25 -12 -25 5 0 10 -10 15 -30 15 -19 0 -30 -5 -30 -14 0 -10 19
-16 60 -21 33 -4 62 -10 64 -13 2 -4 9 -50 15 -102 16 -141 -2 -1027 -23
-1135 -9 -44 -20 -125 -26 -180 -5 -55 -12 -126 -16 -159 l-6 -58 -86 7 c-48
5 -99 7 -114 6 -16 -1 -28 2 -28 6 0 5 -35 8 -77 9 -69 1 -79 4 -97 26 -22 26
-56 44 -56 28 0 -5 7 -13 17 -18 14 -9 14 -10 -5 -16 -12 -4 -31 -4 -42 -1
-23 7 -27 35 -5 35 17 0 20 17 4 22 -6 2 -10 49 -9 128 1 69 1 142 0 162 0 25
5 40 17 47 10 6 12 11 6 11 -9 0 -13 22 -13 78 0 43 3 81 6 84 3 4 5 120 5
258 l0 252 47 -7 c26 -3 83 -15 127 -25 143 -33 152 -34 135 -17 -16 15 -122
47 -158 47 -12 0 -36 9 -54 20 -18 11 -28 20 -23 20 7 0 11 25 10 60 0 33 -3
60 -6 60 -4 0 -7 24 -7 54 0 40 5 59 19 75 14 15 19 35 19 73 0 51 -2 54 -35
72 -30 17 -35 24 -35 55 0 20 4 53 9 74 8 35 -2 92 -20 107 -12 11 -17 38 -8
47 7 7 4 13 -7 17 -16 6 -16 -2 -10 -111 4 -65 8 -136 9 -158 2 -36 5 -40 32
-45 25 -4 31 -11 36 -40 3 -19 9 -42 13 -51 4 -9 -1 -22 -13 -34 -17 -15 -23
-16 -36 -5 -9 7 -17 11 -19 9 -1 -2 1 -60 6 -128 4 -68 6 -126 4 -129 -3 -2
-12 -2 -20 1 -11 5 -15 37 -17 169 -3 208 -5 240 -12 258 -3 8 -8 51 -11 94
-6 77 -14 104 -23 79 -5 -15 -23 -17 -23 -4 0 5 8 17 17 27 21 20 25 44 13 64
-9 13 -11 13 -20 0 -8 -13 -10 -12 -10 3 0 19 -25 31 -84 42 -32 7 -36 5 -30
-11 6 -16 2 -15 -19 5 -22 20 -27 22 -27 8 0 -21 -19 -22 -26 -2 -4 8 -15 15
-26 15 -15 0 -18 -3 -10 -13 7 -8 6 -18 -4 -31 -7 -10 -11 -23 -8 -27 2 -4 5
-24 6 -44 2 -42 8 -48 41 -36 17 7 28 6 36 -2 10 -9 16 -8 27 7 13 19 14 19
14 -5 0 -14 -6 -26 -12 -27 -7 -1 -27 -4 -45 -6 -18 -3 -35 -1 -39 5 -3 6 -18
7 -34 4 -35 -8 -37 -4 -46 138 l-6 107 26 0 c14 0 103 -18 198 -40z m-82 -136
c2 -3 -2 -9 -9 -14 -15 -9 -51 8 -51 23 0 9 50 1 60 -9z"/>
<path d="M8575 10515 c3 -53 8 -107 11 -119 6 -27 34 -30 34 -5 0 10 4 21 10
24 8 5 6 172 -3 181 -1 1 -15 6 -30 9 l-28 7 6 -97z"/>
<path d="M8640 10204 c0 -8 5 -12 11 -9 6 4 23 11 37 15 25 8 24 8 -10 9 -28
1 -38 -3 -38 -15z"/>
<path d="M8940 10209 c0 -5 5 -7 10 -4 6 3 10 8 10 11 0 2 -4 4 -10 4 -5 0
-10 -5 -10 -11z"/>
<path d="M8600 10200 c0 -5 5 -10 10 -10 6 0 10 5 10 10 0 6 -4 10 -10 10 -5
0 -10 -4 -10 -10z"/>
<path d="M8640 9970 c0 -6 7 -10 15 -10 8 0 15 2 15 4 0 2 -7 6 -15 10 -8 3
-15 1 -15 -4z"/>
<path d="M8681 9954 c0 -11 3 -14 6 -6 3 7 2 16 -1 19 -3 4 -6 -2 -5 -13z"/>
<path d="M8748 9953 c-27 -7 -22 -23 7 -23 18 0 23 4 19 15 -4 8 -7 14 -8 14
0 -1 -9 -3 -18 -6z"/>
<path d="M8836 9941 c-14 -5 -16 -10 -7 -15 7 -5 15 -5 18 -2 3 3 12 1 20 -5
14 -13 16 -9 7 15 -7 18 -10 18 -38 7z"/>
<path d="M8920 9919 c0 -5 5 -7 10 -4 6 3 10 8 10 11 0 2 -4 4 -10 4 -5 0 -10
-5 -10 -11z"/>
<path d="M8630 9891 c0 -5 5 -13 10 -16 6 -3 10 -2 10 4 0 5 -4 13 -10 16 -5
3 -10 2 -10 -4z"/>
<path d="M8820 9810 c0 -5 5 -10 10 -10 6 0 10 5 10 10 0 6 -4 10 -10 10 -5 0
-10 -4 -10 -10z"/>
<path d="M4895 11699 c-38 -5 -144 -19 -235 -30 -201 -25 -260 -37 -260 -52 0
-7 5 -41 11 -77 6 -36 14 -213 19 -395 4 -181 13 -467 20 -634 13 -331 9 -386
-34 -452 -41 -62 -138 -93 -222 -70 -23 6 -62 27 -88 47 -44 33 -46 34 -42 12
3 -13 8 -45 11 -73 4 -27 18 -99 31 -160 14 -60 35 -180 47 -265 l23 -155 145
1 c136 1 151 3 260 37 207 64 325 139 405 257 17 25 34 54 37 65 3 11 15 45
26 76 30 89 45 235 38 393 -9 199 -34 764 -52 1141 -8 176 -15 326 -15 333 0
14 -21 14 -125 1z m-25 -43 c0 -2 -7 -6 -15 -10 -8 -3 -15 -1 -15 4 0 6 7 10
15 10 8 0 15 -2 15 -4z m-152 -22 c15 -4 22 -14 22 -30 0 -28 0 -28 -35 -10
-15 8 -34 12 -41 9 -17 -6 -18 9 -2 25 13 13 23 14 56 6z m183 -3 c-11 -7 -12
-18 -4 -53 13 -53 14 -98 2 -98 -5 0 -9 -7 -9 -16 0 -21 -23 -13 -26 10 -5 32
-13 46 -29 46 -8 0 -15 -7 -15 -15 0 -10 -11 -4 -31 17 -27 29 -30 30 -26 11
4 -20 2 -21 -14 -12 -10 5 -19 17 -19 26 0 13 10 15 56 11 53 -5 57 -3 67 21
14 34 37 61 51 61 6 0 5 -4 -3 -9z m-331 -31 c0 -5 -2 -10 -4 -10 -3 0 -8 5
-11 10 -3 6 -1 10 4 10 6 0 11 -4 11 -10z m40 -34 c0 -35 -15 -40 -16 -5 -1
16 3 29 7 29 5 0 9 -11 9 -24z m-152 -5 c3 -8 -1 -12 -9 -9 -7 2 -15 10 -17
17 -3 8 1 12 9 9 7 -2 15 -10 17 -17z m186 -13 c-4 -7 -2 -8 4 -4 18 11 37 -4
21 -15 -11 -8 -11 -12 4 -23 23 -18 22 -25 -3 -19 -11 3 -20 9 -20 13 0 5 -7
16 -16 25 -17 16 -12 51 6 40 6 -4 7 -11 4 -17z m-27 -84 c-3 -4 -14 -3 -24 0
-15 6 -15 8 -3 16 16 10 39 -4 27 -16z m-72 6 c3 -5 1 -19 -6 -31 -9 -17 -13
-19 -20 -8 -4 8 -4 16 3 20 6 4 7 12 4 18 -4 6 -3 11 3 11 5 0 13 -4 16 -10z
m115 -9 c0 -5 -7 -11 -15 -15 -15 -5 -20 5 -8 17 9 10 23 9 23 -2z m-60 -42
c0 -5 -4 -9 -10 -9 -5 0 -10 7 -10 16 0 8 5 12 10 9 6 -3 10 -10 10 -16z m322
-18 c10 -12 13 -23 7 -32 -7 -11 -9 -11 -9 2 0 9 -7 19 -15 23 -15 6 -21 26
-7 26 4 0 15 -8 24 -19z m-312 -27 c0 -9 -31 -37 -36 -32 -9 9 8 38 22 38 8 0
14 -3 14 -6z m-70 -64 c0 -5 -4 -10 -10 -10 -5 0 -10 5 -10 10 0 6 5 10 10 10
6 0 10 -4 10 -10z m470 0 c0 -5 -4 -10 -10 -10 -5 0 -10 5 -10 10 0 6 5 10 10
10 6 0 10 -4 10 -10z m-110 -10 c0 -5 -4 -10 -10 -10 -5 0 -10 5 -10 10 0 6 5
10 10 10 6 0 10 -4 10 -10z m-350 -24 c0 -2 -7 -9 -15 -16 -13 -11 -14 -10 -9
4 5 14 24 23 24 12z m400 -6 c0 -5 -4 -10 -9 -10 -6 0 -13 5 -16 10 -3 6 1 10
9 10 9 0 16 -4 16 -10z m-45 -20 c14 -15 15 -20 4 -20 -8 0 -20 9 -27 20 -7
11 -8 20 -4 20 5 0 17 -9 27 -20z m-371 -62 c6 -4 7 -10 3 -14 -10 -10 -36 27
-36 51 0 17 2 17 12 -5 6 -14 16 -28 21 -32z m473 -43 c24 -25 7 -30 -18 -6
-13 12 -17 21 -10 21 7 0 19 -7 28 -15z m-226 -48 c-8 -8 -11 -7 -11 4 0 20
13 34 18 19 3 -7 -1 -17 -7 -23z m-190 -101 c5 3 9 -6 9 -20 0 -15 -5 -25 -12
-23 -6 1 -14 -9 -18 -23 l-7 -25 -12 28 c-6 16 -11 38 -10 50 0 21 1 21 9 2 8
-19 9 -19 16 5 4 13 9 19 12 12 2 -7 8 -10 13 -6z m434 -66 c3 -5 2 -10 -4
-10 -5 0 -13 5 -16 10 -3 6 -2 10 4 10 5 0 13 -4 16 -10z m-27 -42 c-3 -7 -13
-15 -24 -17 -16 -3 -17 -1 -5 13 16 19 34 21 29 4z m-511 -13 c8 -22 -6 -33
-17 -15 -13 20 -12 30 0 30 6 0 13 -7 17 -15z m440 -27 c-3 -8 -6 -5 -6 6 -1
11 2 17 5 13 3 -3 4 -12 1 -19z m53 -8 c0 -5 -7 -10 -16 -10 -8 0 -12 5 -9 10
3 6 10 10 16 10 5 0 9 -4 9 -10z m-496 -72 c-4 -6 1 -17 11 -25 15 -10 16 -16
7 -25 -10 -10 -15 -10 -22 2 -13 20 -13 73 0 65 6 -4 7 -11 4 -17z m494 6 c14
-15 14 -16 -3 -13 -10 2 -20 10 -23 17 -5 17 6 15 26 -4z m-56 -46 c-6 -6 -15
-8 -19 -4 -4 4 -1 11 7 16 19 12 27 3 12 -12z m-188 -10 c-9 -30 -8 -30 -38
-22 -14 3 -26 13 -26 20 0 10 7 13 25 8 15 -4 25 -2 25 5 0 6 5 11 11 11 6 0
8 -9 3 -22z m-213 -21 c-10 -9 -11 -8 -5 6 3 10 9 15 12 12 3 -3 0 -11 -7 -18z
m279 3 c0 -5 -9 -10 -21 -10 -11 0 -17 5 -14 10 3 6 13 10 21 10 8 0 14 -4 14
-10z m171 -43 c-13 -13 -26 -3 -16 12 3 6 11 8 17 5 6 -4 6 -10 -1 -17z m-359
-52 c5 -26 1 -30 -19 -17 -7 4 -10 17 -6 30 7 27 19 21 25 -13z m-86 -11 c-3
-9 -6 -20 -6 -25 0 -16 -30 -10 -37 7 -6 17 12 34 36 34 8 0 11 -6 7 -16z m84
-86 c0 -13 -23 -5 -28 10 -2 7 2 10 12 6 9 -3 16 -11 16 -16z m-50 -8 c0 -5
-4 -10 -10 -10 -5 0 -10 5 -10 10 0 6 5 10 10 10 6 0 10 -4 10 -10z m430 -31
c0 -6 -4 -7 -10 -4 -5 3 -10 11 -10 16 0 6 5 7 10 4 6 -3 10 -11 10 -16z m27
-21 c-3 -8 -6 -5 -6 6 -1 11 2 17 5 13 3 -3 4 -12 1 -19z m-167 -18 c0 -5 -4
-10 -10 -10 -5 0 -10 5 -10 10 0 6 5 10 10 10 6 0 10 -4 10 -10z m136 -4 c24
-18 10 -35 -16 -19 -15 10 -21 8 -34 -10 -15 -21 -15 -21 -5 11 12 35 25 39
55 18z m54 -1 c-7 -9 -15 -13 -17 -11 -7 7 7 26 19 26 6 0 6 -6 -2 -15z m-265
-25 c3 -5 2 -10 -4 -10 -5 0 -13 5 -16 10 -3 6 -2 10 4 10 5 0 13 -4 16 -10z
m102 -38 c2 -24 -1 -30 -12 -26 -9 4 -21 1 -29 -5 -14 -12 -26 -5 -26 16 0 7
9 13 20 13 14 0 20 7 20 21 0 33 24 16 27 -19z m111 19 c11 -7 10 -10 -3 -15
-20 -7 -38 1 -30 15 7 11 16 11 33 0z m-381 -78 c-15 -20 -24 -16 -29 12 -7
32 0 37 21 17 12 -12 15 -21 8 -29z m453 12 c0 -9 -8 -19 -17 -22 -29 -11 -52
-41 -46 -61 6 -24 -9 -34 -53 -38 -32 -2 -34 -1 -34 32 0 24 4 32 14 28 8 -3
17 -1 21 5 3 6 3 11 -2 12 -4 0 -17 2 -28 4 -10 2 -25 -1 -31 -6 -9 -7 -16 -5
-23 10 -6 11 -11 22 -11 26 0 8 63 3 75 -6 18 -14 89 -5 109 14 24 21 26 21
26 2z m-270 -5 c0 -5 -9 -10 -19 -10 -11 0 -23 5 -26 10 -4 6 5 10 19 10 14 0
26 -4 26 -10z m-280 -74 c0 -3 -4 -8 -10 -11 -5 -3 -10 -1 -10 4 0 6 5 11 10
11 6 0 10 -2 10 -4z m560 -72 c0 -8 -4 -13 -9 -9 -6 3 -14 -3 -20 -12 -7 -12
-10 -13 -11 -4 0 9 -8 12 -25 9 -15 -3 -25 -1 -25 7 0 19 11 25 52 25 28 0 38
-4 38 -16z m-393 -19 c22 2 33 -1 30 -8 -2 -7 -23 -12 -48 -12 -24 0 -54 -4
-66 -8 -13 -5 -30 -4 -40 2 -16 9 -13 11 15 17 21 4 31 11 28 19 -4 10 1 10
21 0 14 -7 41 -12 60 -10z m144 9 c10 -13 10 -17 0 -24 -7 -4 -9 -10 -4 -13
11 -7 40 -3 49 6 13 12 24 8 24 -10 0 -15 2 -15 14 2 12 17 16 17 31 5 12 -10
15 -23 10 -54 -9 -51 -23 -68 -36 -43 -6 9 -17 17 -24 17 -8 0 -15 3 -15 8 0
4 -13 13 -29 20 -18 8 -28 19 -25 26 4 9 -7 16 -30 20 -22 4 -36 13 -36 21 0
17 16 20 25 5 3 -5 12 -10 18 -10 8 0 7 3 -2 9 -7 5 -10 14 -7 20 10 15 21 14
37 -5z m-291 -13 c0 -5 -7 -11 -15 -15 -9 -3 -15 0 -15 9 0 8 7 15 15 15 8 0
15 -4 15 -9z m220 -30 c0 -5 11 -12 24 -15 27 -7 86 -69 86 -91 0 -8 -9 -19
-19 -25 -26 -13 -61 -13 -61 1 0 8 -5 8 -15 -1 -12 -10 -18 -10 -30 0 -22 19
-18 30 11 30 22 0 24 3 18 23 -4 12 -20 33 -35 46 -36 29 -37 41 -4 41 14 0
25 -4 25 -9z m-80 -17 c0 -17 -22 -14 -28 4 -2 7 3 12 12 12 9 0 16 -7 16 -16z
m-85 -14 c3 -5 2 -10 -4 -10 -5 0 -13 5 -16 10 -3 6 -2 10 4 10 5 0 13 -4 16
-10z m480 -20 c3 -5 1 -10 -4 -10 -6 0 -11 5 -11 10 0 6 2 10 4 10 3 0 8 -4
11 -10z m-535 -9 c0 -6 -4 -13 -10 -16 -5 -3 -10 1 -10 9 0 9 5 16 10 16 6 0
10 -4 10 -9z m114 -7 c17 -7 22 -34 6 -34 -5 0 -10 5 -10 10 0 6 -7 10 -16 10
-8 0 -12 5 -9 10 7 12 8 12 29 4z m382 -5 c3 -6 0 -15 -7 -20 -21 -12 -3 -22
19 -10 15 8 21 7 26 -4 3 -8 1 -17 -3 -20 -5 -3 -7 -14 -4 -25 8 -29 -5 -56
-19 -42 -7 7 -19 12 -27 12 -12 -1 -9 -6 9 -21 24 -20 24 -21 5 -35 -30 -22
-48 -18 -41 11 5 20 2 26 -19 31 -35 9 -31 24 5 24 17 0 30 5 30 10 0 6 7 10
15 10 8 0 15 5 15 10 0 14 -13 13 -28 -2 -16 -16 -28 -2 -13 16 10 12 8 16 -8
21 -17 5 -19 10 -11 26 12 21 45 26 56 8z m-521 -19 c21 -23 13 -39 -10 -20
-11 9 -19 10 -26 3 -8 -8 -5 -14 10 -22 12 -7 21 -21 21 -31 0 -11 5 -20 10
-20 6 0 10 6 10 13 0 8 3 8 9 -2 5 -8 18 -12 30 -8 12 3 24 1 27 -4 11 -18 34
-9 34 14 0 12 7 31 15 41 14 18 15 18 25 -8 5 -15 10 -32 10 -37 0 -5 9 -9 20
-9 11 0 20 -5 20 -11 0 -7 -9 -9 -21 -6 -15 4 -23 0 -26 -13 -5 -17 -68 -37
-103 -31 -8 1 -27 2 -42 2 -15 0 -30 5 -33 10 -4 5 -14 9 -23 9 -16 -1 -16 -2
1 -14 9 -7 17 -16 17 -20 0 -11 -28 -6 -33 7 -3 6 -6 2 -6 -10 -1 -21 -5 -23
-67 -23 -52 0 -64 3 -56 13 7 8 6 18 -4 31 -19 27 -18 31 11 44 32 15 45 15
45 2 0 -5 -7 -10 -15 -10 -8 0 -12 -6 -9 -15 5 -12 11 -12 37 -2 35 15 48 37
21 37 -16 0 -16 2 3 15 12 8 28 12 37 9 11 -4 16 -1 16 10 0 9 -4 16 -9 16 -5
0 -11 9 -14 20 -3 11 -2 18 3 15 4 -3 10 2 14 10 8 21 30 19 51 -5z m-344 -55
c-1 -15 -24 -12 -29 3 -3 9 2 13 12 10 10 -1 17 -7 17 -13z m809 11 c0 -3 -4
-8 -10 -11 -5 -3 -10 -1 -10 4 0 6 5 11 10 11 6 0 10 -2 10 -4z m-830 -50 c0
-10 6 -13 18 -9 15 6 16 5 2 -13 -8 -10 -21 -26 -29 -34 -13 -13 -14 -12 -8 9
4 16 1 28 -8 35 -9 7 -12 20 -9 33 5 19 8 20 20 8 8 -7 14 -21 14 -29z m160
25 c0 -14 -18 -23 -30 -16 -6 4 -8 11 -5 16 8 12 35 12 35 0z m540 -50 c0 -11
-6 -9 -20 7 -11 12 -20 24 -20 27 0 3 9 0 20 -7 11 -7 20 -19 20 -27z m-580
23 c0 -13 -21 -44 -30 -44 -6 0 -10 11 -10 25 0 18 5 25 20 25 11 0 20 -3 20
-6z m638 -36 c-6 -18 -28 -21 -28 -4 0 9 7 16 16 16 9 0 14 -5 12 -12z m-700
-46 c-13 -8 -29 -22 -35 -30 -15 -19 -17 -3 -4 31 8 20 15 23 36 20 l26 -5
-23 -16z m637 18 c3 -5 1 -10 -4 -10 -6 0 -11 5 -11 10 0 6 2 10 4 10 3 0 8
-4 11 -10z m-567 -36 c1 0 -11 -1 -28 -1 -24 0 -27 3 -19 14 9 11 15 11 28 1
9 -7 17 -13 19 -14z m-131 -6 c-3 -8 -6 -5 -6 6 -1 11 2 17 5 13 3 -3 4 -12 1
-19z m883 -7 c0 -35 -19 -73 -34 -68 -7 3 -25 -1 -39 -8 -22 -11 -28 -11 -38
1 -6 8 -19 14 -28 15 -12 0 -11 2 4 8 11 5 25 6 30 3 21 -13 35 -10 35 8 0 17
44 59 63 60 4 0 7 -9 7 -19z m-620 -21 c0 -5 -7 -7 -15 -4 -8 4 -15 8 -15 10
0 2 7 4 15 4 8 0 15 -4 15 -10z m465 0 c3 -5 1 -10 -4 -10 -6 0 -11 5 -11 10
0 6 2 10 4 10 3 0 8 -4 11 -10z m-300 -10 c3 -5 2 -10 -4 -10 -5 0 -13 5 -16
10 -3 6 -2 10 4 10 5 0 13 -4 16 -10z m160 0 c-3 -5 -15 -10 -26 -10 -10 0
-19 5 -19 10 0 6 12 10 26 10 14 0 23 -4 19 -10z m-225 -10 c0 -5 -4 -10 -10
-10 -5 0 -10 5 -10 10 0 6 5 10 10 10 6 0 10 -4 10 -10z m166 -7 c-4 -9 -1
-20 6 -25 10 -7 9 -9 -2 -5 -18 4 -27 47 -10 47 7 0 9 -7 6 -17z m112 5 c-6
-18 -25 -20 -31 -3 -5 10 0 15 14 15 12 0 19 -5 17 -12z m54 -10 c-9 -9 -15
-9 -24 0 -9 9 -7 12 12 12 19 0 21 -3 12 -12z m-532 -2 c0 -2 -7 -6 -15 -10
-8 -3 -15 -1 -15 4 0 6 7 10 15 10 8 0 15 -2 15 -4z m192 -24 c-18 -15 -32
-35 -32 -44 0 -24 13 -23 35 2 31 35 53 26 57 -22 2 -33 7 -44 23 -47 11 -2
25 -11 32 -20 10 -14 11 -11 8 14 -2 17 -4 32 -5 35 -2 3 -2 8 -1 13 0 4 -3 7
-8 7 -5 0 -11 9 -14 20 -3 12 -1 17 5 14 5 -3 9 0 7 7 -4 32 2 49 17 49 14 0
14 -3 4 -16 -11 -13 -10 -16 7 -20 14 -4 19 -12 16 -25 -4 -14 0 -19 16 -19
11 0 21 5 21 10 0 6 5 10 11 10 6 0 17 7 25 15 21 21 37 19 32 -3 -3 -11 0
-30 8 -43 11 -21 13 -22 19 -6 4 9 13 17 21 17 20 0 17 10 -8 37 -19 20 -19
23 -4 23 9 0 19 -7 22 -15 4 -8 13 -15 21 -15 11 0 13 -7 9 -24 -6 -26 1 -56
14 -56 4 0 10 10 13 21 4 16 11 20 26 16 30 -8 35 9 9 28 -23 17 -23 17 9 10
18 -3 34 -2 38 4 3 6 13 11 21 11 20 0 -15 -49 -79 -113 -33 -32 -56 -47 -70
-46 -13 2 -37 -11 -59 -31 -40 -35 -72 -50 -176 -80 -59 -16 -63 -17 -72 -1
-6 12 -23 18 -57 20 -43 2 -53 -2 -78 -28 -25 -26 -38 -30 -79 -31 -47 0 -48
0 -27 18 21 16 21 18 5 50 -20 41 -34 31 -37 -26 -1 -26 -6 -42 -13 -42 -20 0
-46 31 -39 47 3 8 0 34 -6 57 -6 22 -13 65 -14 94 l-4 53 42 -4 c60 -6 72 1
42 25 -35 27 -32 34 17 41 49 7 56 3 39 -17 -15 -18 -5 -56 14 -56 7 0 16 -7
19 -16 3 -8 10 -13 15 -9 5 3 12 1 16 -5 3 -5 -5 -14 -19 -20 -17 -6 -24 -14
-20 -25 5 -12 -2 -15 -30 -15 -45 0 -46 -13 -2 -34 39 -18 50 -20 41 -6 -3 5
2 18 12 30 18 21 43 27 43 10 0 -5 5 -10 11 -10 5 0 7 5 4 10 -9 14 28 12 44
-2 11 -11 13 -10 7 5 -3 10 -6 23 -6 29 0 7 -5 6 -14 -1 -10 -8 -16 -8 -25 2
-6 8 -8 17 -4 20 11 11 53 8 53 -4 0 -6 7 -8 16 -5 15 6 15 4 3 -11 -12 -15
-12 -16 4 -10 10 4 17 2 17 -6 0 -8 3 -8 9 2 5 7 14 10 20 7 7 -5 11 1 11 13
0 18 -6 21 -40 21 -33 0 -40 3 -40 20 0 12 -7 20 -17 21 -10 1 -27 2 -38 3
-14 1 -21 9 -23 29 -2 20 -8 27 -18 23 -26 -10 -14 3 17 19 17 9 36 14 43 12
7 -3 28 -2 47 3 54 13 56 11 21 -18z"/>
<path d="M4658 9632 c-7 -25 15 -61 26 -44 4 6 1 23 -7 38 -13 25 -14 26 -19
6z"/>
<path d="M4250 9624 c0 -8 5 -12 10 -9 6 3 10 10 10 16 0 5 -4 9 -10 9 -5 0
-10 -7 -10 -16z"/>
<path d="M4340 9496 c0 -2 7 -9 15 -16 13 -11 14 -10 9 4 -5 14 -24 23 -24 12z"/>
<path d="M7635 9455 c-100 -16 -152 -35 -235 -85 -217 -130 -373 -381 -439
-708 -38 -186 -40 -208 -37 -407 3 -223 15 -306 71 -489 63 -209 144 -352 269
-480 162 -164 357 -235 614 -223 166 8 258 40 369 129 41 32 123 128 123 144
0 4 6 15 14 23 21 25 80 140 103 201 37 98 73 219 72 242 -1 27 2 34 -43 -112
-15 -47 -31 -94 -35 -105 -5 -11 -21 -48 -35 -83 -14 -35 -40 -83 -56 -107
-17 -24 -30 -47 -30 -51 0 -11 -82 -109 -108 -128 -13 -10 -26 -15 -30 -12 -3
4 -7 46 -9 94 -1 48 -4 119 -5 157 -2 39 -8 76 -15 82 -7 8 -9 29 -6 54 5 37
4 41 -10 36 -10 -4 -17 -3 -17 1 0 4 -18 15 -40 25 -22 9 -40 21 -40 27 0 14
12 13 49 -6 36 -18 51 -13 31 11 -7 8 -14 33 -16 56 -4 44 -10 59 -25 59 -6 0
-7 -5 -3 -12 5 -8 -2 -9 -24 -5 -30 6 -43 -5 -22 -18 5 -3 7 -12 4 -19 -3 -7
2 -16 12 -20 14 -5 13 -10 -10 -32 -26 -26 -26 -26 -22 -168 3 -92 1 -134 -5
-121 -8 17 -8 16 -3 -5 10 -42 12 -200 2 -206 -5 -3 -7 -18 -4 -32 10 -48 -21
-73 -100 -82 -88 -10 -211 -6 -291 10 -58 12 -63 15 -64 39 -1 14 -3 37 -4 51
-1 14 -6 84 -10 155 -4 77 -13 140 -21 155 -12 22 -13 13 -10 -75 3 -55 8
-144 11 -197 8 -99 3 -114 -27 -85 -7 6 -17 12 -23 12 -18 1 -105 47 -105 56
0 5 -7 9 -15 9 -8 0 -20 9 -27 20 -7 11 -18 20 -25 20 -7 0 -16 6 -20 13 -4 8
-16 16 -25 20 -10 3 -18 13 -18 21 0 7 -11 21 -25 30 -14 9 -34 34 -44 55 -11
21 -26 41 -33 44 -21 8 -119 211 -143 295 -7 26 -22 79 -33 117 -11 39 -23 98
-27 133 -4 35 -9 80 -12 100 -15 110 -6 467 14 512 3 8 5 19 4 23 0 4 4 17 10
29 6 11 12 34 13 49 1 16 5 31 8 35 4 3 32 2 63 -4 75 -12 385 -16 385 -4 0
15 42 22 57 10 17 -14 43 -3 42 19 0 16 -1 16 -9 -2 -8 -18 -9 -18 -9 -2 -1
13 -6 17 -18 13 -10 -3 -25 -1 -33 5 -13 10 -13 10 0 6 8 -2 31 2 50 8 l35 13
-50 1 c-27 1 -84 2 -125 2 -87 2 -96 5 -78 27 11 14 10 15 -7 8 -72 -30 -76
-30 -93 -20 -12 8 -22 8 -35 0 -12 -8 -22 -8 -36 1 -13 8 -22 8 -29 1 -6 -6
-24 -7 -42 -3 -30 7 -32 9 -25 42 10 54 45 100 45 59 0 -17 42 -28 75 -20 37
9 31 25 -25 69 -53 42 -59 52 -35 61 8 4 15 10 15 16 0 5 6 16 14 24 8 7 16
18 18 24 2 6 27 14 56 19 69 11 82 25 15 16 -29 -4 -53 -3 -53 2 0 4 11 22 24
38 22 27 27 29 46 17 19 -12 21 -11 18 5 -2 10 -10 17 -17 15 -20 -4 3 29 51
73 55 52 165 125 187 125 10 0 21 3 25 7 14 14 84 33 165 44 208 28 401 -37
553 -184 46 -45 128 -157 128 -175 0 -6 7 -12 15 -16 8 -3 12 -12 9 -21 -3 -8
-2 -15 2 -15 5 0 20 -16 33 -35 37 -54 36 -34 0 31 -151 271 -316 399 -555
434 -86 12 -118 11 -219 -5z"/>
<path d="M5590 9380 c-80 -4 -185 -8 -233 -9 l-88 -1 5 -42 c3 -24 8 -140 11
-258 3 -118 7 -242 10 -275 6 -79 13 -370 20 -800 8 -451 23 -957 30 -963 6
-6 443 13 640 28 317 24 559 149 703 365 77 116 119 225 154 397 20 101 23
141 23 373 -1 292 -12 372 -80 562 -101 282 -313 485 -602 577 -149 47 -317
60 -593 46z m212 -109 c8 -104 21 -134 35 -80 13 49 39 45 35 -4 -2 -25 1 -37
7 -32 6 3 11 21 11 38 0 22 3 28 9 18 5 -7 14 -10 20 -6 17 10 71 -14 71 -31
0 -17 -37 -19 -42 -2 -3 9 -10 8 -23 -5 -17 -17 -17 -19 1 -32 23 -17 90 -20
100 -3 4 6 0 16 -8 22 -20 14 -8 45 26 70 14 10 26 23 26 29 0 5 -7 4 -15 -3
-19 -16 -54 -5 -37 12 18 18 14 27 -8 21 -26 -7 -25 7 3 33 18 17 30 20 72 15
58 -7 75 -34 31 -51 -23 -9 -25 -12 -14 -30 7 -11 16 -20 20 -20 5 0 8 -8 9
-17 0 -13 3 -12 10 5 5 13 6 28 3 33 -3 6 -3 21 0 35 6 23 10 24 44 18 53 -10
132 -46 132 -60 0 -7 -9 -16 -20 -19 -11 -3 -20 -11 -20 -16 0 -5 13 -3 30 6
37 19 60 19 60 0 0 -9 9 -15 24 -15 13 0 26 -7 30 -15 3 -8 12 -15 19 -15 8 0
20 -7 27 -15 16 -20 0 -19 -28 1 -30 21 -30 -1 1 -35 12 -14 14 -19 5 -12 -37
28 -40 3 -4 -33 42 -41 42 -50 2 -40 -21 5 -29 16 -38 50 -10 34 -16 43 -29
39 -10 -3 -20 -1 -24 5 -3 6 -11 8 -16 4 -5 -3 -16 0 -24 6 -12 10 -15 9 -15
-4 0 -9 7 -16 15 -16 8 0 15 -5 15 -11 0 -5 -5 -7 -11 -3 -6 3 -15 1 -19 -6
-5 -8 -11 -1 -18 19 -11 31 -35 41 -47 20 -4 -6 2 -13 14 -16 11 -3 19 -9 16
-13 -3 -5 -20 -4 -38 1 -41 12 -42 12 -27 -6 7 -8 9 -15 4 -15 -5 0 -1 -5 8
-11 10 -5 15 -16 12 -24 -4 -8 -1 -15 5 -15 6 0 11 -5 11 -11 0 -7 -11 -9 -30
-5 -28 5 -43 -8 -18 -16 8 -3 7 -6 -3 -10 -24 -9 -45 7 -31 24 14 17 13 80 -2
75 -6 -2 -12 -14 -14 -26 -4 -24 -42 -44 -67 -35 -8 4 -21 2 -28 -4 -6 -5 -24
-12 -39 -16 -15 -3 -32 -15 -38 -26 -6 -11 -20 -20 -30 -20 -27 0 -25 14 3 28
l22 11 -23 0 c-13 1 -40 -11 -60 -26 -20 -15 -39 -28 -41 -30 -2 -2 -2 -6 1
-9 4 -3 17 1 30 10 13 9 33 13 46 9 27 -7 29 -19 3 -26 -14 -3 -18 -11 -14
-26 5 -20 7 -21 23 -6 10 9 24 15 32 14 7 -1 26 3 41 9 16 7 35 12 43 12 9 0
23 7 32 16 12 12 29 15 69 12 29 -3 54 -1 55 3 2 4 30 10 63 14 56 5 61 4 61
-15 0 -22 -21 -28 -29 -7 -4 9 -8 8 -16 -3 -6 -8 -14 -16 -18 -16 -24 -4 -53
-17 -53 -24 0 -4 9 -17 20 -30 25 -29 25 -30 -2 -29 -13 0 -50 -2 -83 -4 -33
-3 -67 -1 -76 3 -9 5 -19 6 -23 3 -3 -4 -39 -6 -78 -6 -58 1 -77 5 -95 21
l-23 20 0 -25 c0 -27 -27 -66 -49 -71 -23 -5 -51 9 -51 24 0 8 4 13 9 10 14
-9 19 17 7 38 -8 14 -8 20 2 23 19 7 14 23 -8 23 -24 0 -25 8 -6 36 16 22 13
27 -43 66 l-24 17 26 6 c14 4 30 4 35 1 6 -3 8 58 5 160 l-5 166 23 -4 c23 -3
24 -8 31 -97z m-257 69 c0 -10 -8 -14 -22 -13 -14 2 -27 -5 -33 -17 -6 -11
-17 -20 -25 -20 -8 0 -15 -3 -16 -7 -5 -55 -2 -83 8 -83 7 0 20 -11 29 -25 16
-24 15 -27 -1 -45 -13 -15 -21 -17 -31 -9 -9 7 -13 5 -16 -8 -2 -11 13 -34 40
-60 23 -24 45 -43 47 -43 3 0 5 9 5 20 0 11 6 20 13 20 9 0 12 -30 13 -116 1
-92 4 -118 17 -131 12 -12 20 -13 29 -6 8 7 22 7 36 2 21 -8 22 -14 24 -121 1
-62 3 -126 4 -143 1 -16 4 -181 8 -365 4 -184 9 -345 12 -356 3 -12 1 -25 -5
-28 -6 -4 -5 -16 4 -33 8 -15 11 -31 7 -37 -4 -6 -5 -34 -3 -63 2 -45 -1 -56
-22 -75 -25 -24 -43 -103 -26 -114 30 -18 -38 -62 -75 -48 -9 3 -16 1 -16 -5
0 -6 9 -11 21 -11 15 0 19 -4 15 -15 -3 -8 -9 -22 -12 -30 -3 -8 -1 -15 5 -15
6 0 11 -12 11 -27 0 -25 0 -26 -20 -8 -18 16 -20 16 -20 2 0 -24 4 -32 14 -29
5 2 5 -28 1 -70 -4 -40 -9 -90 -10 -111 -2 -21 -4 -40 -6 -42 -2 -2 -48 -6
-102 -9 l-97 -6 0 33 c0 36 14 65 24 49 3 -6 4 -17 0 -25 -6 -17 45 -31 61
-16 5 5 19 9 31 9 32 0 46 23 46 75 0 25 3 45 7 45 3 0 7 24 7 53 l1 53 -62 0
c-35 -1 -61 -5 -58 -10 3 -4 -4 -5 -16 -1 -12 4 -21 2 -21 -4 0 -6 5 -11 12
-11 6 0 9 -2 6 -5 -10 -10 -39 8 -34 21 3 8 1 14 -4 14 -5 0 -9 121 -9 280 0
154 -3 285 -6 291 -4 5 -2 16 5 24 9 10 9 19 0 35 -8 16 -9 35 0 72 8 39 8 53
-1 59 -6 4 -8 12 -4 19 5 8 10 9 18 1 6 -6 16 -11 21 -11 6 0 4 6 -4 13 -8 7
-21 23 -28 36 -11 20 -11 26 4 42 15 16 15 19 2 24 -11 5 -16 21 -16 55 0 37
4 47 14 43 7 -3 12 -15 11 -26 -2 -21 3 -22 91 -25 92 -3 93 -2 90 20 -2 13
-9 23 -17 23 -8 0 -16 6 -19 14 -3 10 2 11 19 6 22 -7 22 -6 10 9 -10 12 -11
20 -4 27 8 8 16 1 29 -20 19 -33 48 -41 58 -16 3 8 12 12 21 9 11 -5 14 0 13
20 -2 20 -6 25 -20 20 -12 -3 -18 0 -18 10 0 9 7 16 15 16 10 0 15 10 15 34 0
29 -3 34 -25 34 -30 0 -32 -9 -5 -26 28 -17 25 -31 -5 -28 -14 2 -24 5 -23 8
2 3 -3 12 -11 21 -16 20 -8 49 12 41 9 -3 17 4 21 18 l6 23 15 -25 c14 -23 15
-15 13 93 -1 84 -5 122 -15 135 -13 15 -14 13 -8 -22 7 -41 4 -42 -48 -21 -12
5 -17 3 -15 -6 2 -7 -5 -15 -14 -17 -14 -3 -18 3 -18 23 0 21 4 26 16 21 10
-4 14 -1 12 6 -7 21 -29 21 -35 -1 -3 -11 -9 -19 -13 -16 -4 2 -17 -6 -29 -18
-21 -23 -21 -24 -4 -72 12 -35 13 -50 5 -53 -16 -5 -15 -32 1 -32 20 0 40 -17
33 -28 -4 -7 -17 -5 -38 6 -42 22 -69 54 -57 67 14 15 11 25 -10 25 -22 0 -34
-25 -26 -51 4 -11 2 -19 -5 -19 -6 0 -8 -5 -4 -11 6 -11 -12 -29 -29 -29 -4 0
-7 21 -7 48 1 26 -3 126 -9 222 -5 96 -8 176 -5 179 2 2 18 4 34 4 40 0 33 21
-8 25 -30 3 -32 6 -34 45 -5 107 -4 148 4 153 4 3 8 17 8 31 0 20 4 24 20 20
11 -3 20 -1 20 3 0 5 3 15 6 24 4 12 0 16 -15 16 -13 0 -21 -6 -21 -17 0 -24
-15 -6 -16 20 -1 12 -5 36 -9 53 -8 38 3 43 115 54 102 10 125 8 125 -10z m96
-140 c2 -87 0 -146 -6 -148 -10 -2 -25 295 -16 304 14 14 20 -27 22 -156z
m282 149 c12 12 39 2 31 -10 -3 -5 2 -9 10 -9 25 0 19 -18 -6 -22 -13 -2 -28
4 -35 12 -9 10 -12 11 -13 3 0 -15 -38 -17 -59 -4 -8 5 -11 16 -8 24 5 13 12
14 39 7 19 -6 36 -6 41 -1z m-83 -69 c0 -16 -4 -30 -10 -30 -5 0 -7 7 -4 15 4
8 1 22 -6 30 -10 12 -9 15 4 15 11 0 16 -9 16 -30z m-230 -42 c0 -4 -7 -8 -15
-8 -8 0 -15 4 -15 8 0 5 7 9 15 9 8 0 15 -4 15 -9z m-14 -114 c-6 -16 -8 -16
-16 -4 -6 8 -10 24 -10 35 0 18 1 18 16 3 10 -10 14 -23 10 -34z m921 -23 c10
-16 9 -18 -8 -14 -10 3 -19 12 -19 19 0 20 13 17 27 -5z m-930 -47 c-9 -9 -28
6 -21 18 4 6 10 6 17 -1 6 -6 8 -13 4 -17z m988 6 c4 -6 -5 -10 -19 -10 -14 0
-26 5 -26 10 0 6 9 10 19 10 11 0 23 -4 26 -10z m-915 -30 c0 -5 -7 -10 -16
-10 -8 0 -12 5 -9 10 3 6 10 10 16 10 5 0 9 -4 9 -10z m680 -16 c0 -2 -7 -4
-15 -4 -8 0 -15 4 -15 10 0 5 7 7 15 4 8 -4 15 -8 15 -10z m-267 -15 c-6 -6
-19 -9 -29 -6 -17 3 -16 5 6 14 28 12 39 8 23 -8z m507 -4 c0 -16 27 -28 35
-15 3 5 1 11 -5 15 -16 10 -12 25 5 19 8 -4 14 -17 13 -31 -2 -22 -6 -24 -32
-19 -29 6 -58 34 -50 48 7 11 34 -3 34 -17z m-92 -4 c2 -6 12 -11 23 -11 11 0
39 -10 62 -22 23 -12 55 -24 71 -27 40 -9 44 -28 9 -42 l-28 -11 33 -14 c40
-18 41 -34 2 -34 -20 0 -39 9 -54 25 -28 30 -46 32 -39 5 4 -17 0 -20 -25 -20
-17 0 -37 6 -44 13 -6 8 -22 12 -34 9 -12 -2 -25 1 -28 7 -4 6 -2 11 5 11 19
0 49 31 49 50 0 14 -38 60 -41 49 0 -2 -3 -20 -6 -39 -6 -44 -8 -46 -29 -29
-16 13 -16 12 -6 -7 6 -11 8 -30 5 -42 -8 -31 -35 -14 -51 32 -12 31 -11 38 3
53 9 9 20 26 25 38 7 18 15 21 51 19 24 -1 45 -7 47 -13z m-868 5 c0 -18 -15
-36 -31 -36 -22 0 -24 6 -6 25 11 13 37 21 37 11z m750 -11 c0 -8 -7 -15 -15
-15 -26 0 -18 20 13 29 1 1 2 -6 2 -14z m-42 -104 c-8 -12 -18 -18 -21 -14 -4
3 0 15 10 25 21 24 29 15 11 -11z m-639 -11 c5 -16 15 -30 21 -30 6 0 8 -4 5
-10 -8 -12 -45 -13 -45 -1 0 5 -3 23 -6 40 -8 40 11 41 25 1z m595 -6 c4 -10
1 -14 -6 -12 -15 5 -23 28 -10 28 5 0 13 -7 16 -16z m-243 -94 c142 -73 219
-321 206 -664 -8 -209 -37 -311 -112 -394 -37 -42 -131 -87 -159 -76 -10 4
-15 43 -20 172 -4 92 -9 217 -11 277 -19 438 -26 696 -20 705 9 15 67 5 116
-20z m-172 0 c27 0 28 -2 27 -47 0 -27 1 -61 3 -78 7 -67 2 -83 -26 -91 -16
-4 -31 -7 -35 -6 -19 4 -6 -43 17 -62 29 -25 26 -51 -6 -61 -11 -4 -19 -15
-19 -27 0 -17 3 -18 14 -9 12 10 17 8 25 -8 6 -11 11 -29 11 -41 0 -12 4 -18
10 -15 6 4 8 10 5 15 -7 11 5 40 15 40 5 0 8 -14 8 -30 -1 -40 -33 -60 -53
-33 -19 25 -31 8 -15 -21 7 -15 23 -26 39 -28 20 -2 26 -9 27 -28 1 -14 2 -27
3 -30 1 -3 4 -47 6 -98 4 -92 4 -93 -18 -87 l-22 6 22 -18 c20 -17 22 -30 28
-161 5 -141 5 -143 -15 -132 -16 9 -18 15 -10 30 7 14 7 20 0 20 -5 0 -10 -7
-10 -16 0 -9 -5 -12 -12 -8 -10 6 -10 4 0 -7 6 -7 12 -22 12 -32 0 -14 5 -18
20 -14 18 5 20 0 20 -39 0 -37 3 -44 19 -44 11 0 23 -5 26 -10 4 -7 11 -8 18
-2 7 5 26 13 44 16 17 4 34 14 37 22 3 8 15 14 26 14 11 0 20 5 20 10 0 6 5
10 10 10 6 0 10 -12 10 -27 0 -16 5 -35 10 -43 11 -17 12 -12 10 53 -1 37 7
66 39 131 25 53 42 105 46 142 3 32 9 62 12 67 6 10 7 293 1 315 -3 12 21 30
71 52 13 6 21 13 18 16 -3 3 -23 -4 -46 -16 -34 -17 -41 -18 -41 -5 0 8 1 16
2 18 1 1 -4 13 -11 25 -11 21 -11 23 6 20 10 -2 17 -11 15 -21 -2 -11 4 -17
18 -17 24 0 25 7 6 29 -19 22 -30 61 -17 61 6 0 11 -6 11 -14 0 -8 7 -16 15
-20 8 -3 15 -13 15 -22 0 -10 3 -14 7 -11 3 4 14 0 24 -9 16 -14 21 -13 58 10
22 14 47 26 55 26 8 0 18 5 21 10 5 8 12 7 23 -2 13 -11 15 -10 9 5 -5 13 -1
17 15 17 17 0 19 3 10 12 -10 10 -29 4 -92 -30 -44 -23 -82 -42 -85 -42 -11 0
-4 29 8 33 6 3 -3 6 -21 6 -35 1 -49 20 -36 49 7 15 8 14 11 -5 3 -13 8 -23
13 -23 13 0 18 48 6 60 -8 8 -7 13 3 19 23 15 24 69 2 81 -28 14 -41 12 -41
-6 0 -12 -6 -15 -24 -10 -15 4 -26 1 -29 -7 -4 -9 -8 -8 -16 3 -8 11 -11 11
-11 2 0 -10 -5 -10 -20 -2 -30 16 -25 47 12 66 18 9 42 17 53 18 23 1 28 37 6
44 -8 3 -11 0 -7 -7 8 -12 -6 -16 -17 -5 -4 4 -25 7 -47 8 -44 1 -55 -18 -17
-30 21 -7 21 -7 2 -15 -29 -11 -35 -11 -35 5 0 8 -6 16 -12 19 -10 3 -10 7 0
19 11 14 8 17 -24 25 -21 4 -40 15 -42 22 -4 11 15 12 104 7 60 -4 129 -9 154
-12 57 -5 252 -13 348 -14 41 0 72 -4 72 -10 0 -5 -6 -10 -14 -10 -16 0 -29
-41 -20 -64 3 -9 1 -16 -5 -16 -19 0 -12 -17 9 -23 24 -6 28 -47 5 -47 -8 0
-15 -4 -15 -10 0 -10 27 -3 48 13 34 26 54 -42 72 -249 10 -110 1 -403 -15
-478 -28 -140 -61 -251 -85 -286 -9 -14 -25 -43 -34 -65 -20 -44 -88 -139
-121 -170 -113 -104 -180 -147 -299 -192 -62 -24 -112 -30 -101 -13 4 6 2 17
-4 24 -14 17 -10 107 5 123 6 6 10 29 8 50 -2 21 -3 48 -3 61 -1 15 -7 22 -21
22 -23 0 -27 15 -6 27 22 13 29 50 11 57 -10 3 -15 19 -15 47 0 65 -12 37 -14
-31 0 -34 -5 -59 -11 -58 -11 3 -12 8 -14 52 -1 23 -4 26 -15 17 -7 -6 -11
-22 -8 -36 6 -35 -14 -55 -57 -55 -46 1 -100 -10 -107 -22 -10 -16 4 -22 20
-9 18 15 40 5 32 -15 -3 -8 -1 -14 4 -14 6 0 10 7 10 15 0 11 12 15 50 15 l50
0 0 -40 c0 -25 -5 -40 -12 -40 -9 0 -8 -4 2 -10 8 -5 22 -7 31 -4 9 2 19 -2
22 -10 5 -12 10 -143 8 -182 -1 -18 -292 -60 -340 -49 -26 5 -27 9 -27 59 1
29 7 60 15 69 9 11 10 17 2 17 -15 0 -14 45 2 59 15 12 22 91 8 91 -5 0 -11
-5 -13 -12 -2 -6 -10 -8 -17 -4 -16 10 5 37 24 30 27 -11 27 36 0 100 -20 46
-24 69 -18 82 5 11 9 42 7 69 -12 265 -19 325 -35 325 -14 0 -11 58 4 62 14 5
14 19 2 436 l-8 283 24 25 c13 13 29 22 37 19 7 -3 26 -5 41 -5z m907 -135
c-3 -8 2 -19 12 -24 12 -7 13 -10 3 -11 -13 0 -40 28 -41 43 0 4 7 7 16 7 10
0 14 -6 10 -15z m-1276 -16 c0 -5 -4 -9 -10 -9 -5 0 -10 7 -10 16 0 8 5 12 10
9 6 -3 10 -10 10 -16z m37 -131 c-3 -8 -6 -5 -6 6 -1 11 2 17 5 13 3 -3 4 -12
1 -19z m-117 -8 c0 -5 -4 -10 -9 -10 -6 0 -13 5 -16 10 -3 6 1 10 9 10 9 0 16
-4 16 -10z m494 -21 c-3 -5 -10 -7 -15 -3 -5 3 -7 10 -3 15 3 5 10 7 15 3 5
-3 7 -10 3 -15z m346 6 c10 -12 10 -15 -4 -15 -9 0 -16 7 -16 15 0 8 2 15 4
15 2 0 9 -7 16 -15z m-880 -79 c0 -13 -20 -26 -41 -26 -14 0 -11 28 4 33 23
10 37 7 37 -7z m85 4 c3 -5 -1 -10 -10 -10 -9 0 -13 5 -10 10 3 6 8 10 10 10
2 0 7 -4 10 -10z m100 -10 c3 -5 -1 -10 -9 -10 -9 0 -16 5 -16 10 0 6 4 10 9
10 6 0 13 -4 16 -10z m-138 -85 c3 -9 3 -18 0 -21 -9 -9 -48 16 -42 27 9 14
35 11 42 -6z m53 -19 c0 -3 -4 -8 -10 -11 -5 -3 -10 -1 -10 4 0 6 5 11 10 11
6 0 10 -2 10 -4z m674 -898 c10 -39 7 -58 -11 -58 -9 0 -14 3 -11 6 4 3 2 18
-2 34 -8 27 -5 40 11 40 3 0 9 -10 13 -22z"/>
<path d="M6212 9260 c0 -14 2 -19 5 -12 2 6 2 18 0 25 -3 6 -5 1 -5 -13z"/>
<path d="M6225 9180 c-22 -11 -65 -36 -95 -55 -30 -19 -68 -42 -85 -51 -68
-35 -99 -54 -88 -54 14 0 258 133 293 160 32 25 25 25 -25 0z"/>
<path d="M5840 9099 c0 -6 -6 -9 -14 -6 -10 4 -14 0 -13 -14 1 -10 4 -19 8
-19 4 0 15 -7 23 -15 14 -14 19 -14 53 4 31 17 34 20 16 21 -13 0 -23 4 -23 9
0 5 10 12 23 16 l22 8 -24 4 c-13 3 -27 -1 -32 -9 -7 -10 -9 -10 -9 0 0 6 -7
12 -15 12 -8 0 -15 -5 -15 -11z"/>
<path d="M6150 8930 c0 -5 5 -10 11 -10 5 0 7 5 4 10 -3 6 -8 10 -11 10 -2 0
-4 -4 -4 -10z"/>
<path d="M5410 9311 c0 -6 -7 -11 -15 -11 -16 0 -21 -25 -7 -34 5 -3 18 -3 29
0 15 4 19 11 16 25 -6 21 -23 36 -23 20z"/>
<path d="M5395 9180 c-3 -5 -3 -10 2 -11 4 0 -2 -4 -14 -9 -25 -10 -31 -30 -9
-30 22 0 60 35 52 48 -9 15 -23 15 -31 2z"/>
<path d="M5336 9040 c-9 -17 -14 -29 -9 -28 4 1 19 -4 31 -11 13 -7 34 -15 47
-17 19 -3 22 -1 18 16 -6 22 -19 26 -26 8 -3 -10 -7 -10 -20 1 -24 19 -21 40
6 51 22 9 22 9 -3 9 -18 1 -31 -8 -44 -29z"/>
<path d="M5445 8990 c3 -5 11 -10 16 -10 6 0 7 5 4 10 -3 6 -11 10 -16 10 -6
0 -7 -4 -4 -10z"/>
<path d="M5440 8950 c0 -5 7 -10 15 -10 8 0 15 5 15 10 0 6 -7 10 -15 10 -8 0
-15 -4 -15 -10z"/>
<path d="M5483 8925 c-25 -13 -20 -25 8 -25 10 0 23 -8 28 -17 9 -15 10 -13
11 13 0 36 -15 46 -47 29z"/>
<path d="M5415 8909 c-11 -17 1 -21 15 -4 8 9 8 15 2 15 -6 0 -14 -5 -17 -11z"/>
<path d="M5501 8854 c0 -11 3 -14 6 -6 3 7 2 16 -1 19 -3 4 -6 -2 -5 -13z"/>
<path d="M5335 8852 c-3 -3 -5 -13 -5 -23 0 -15 5 -17 31 -12 29 5 31 4 24
-16 -3 -11 -3 -21 2 -21 11 0 37 60 29 68 -8 8 -74 11 -81 4z"/>
<path d="M5458 8830 c-5 -36 -3 -39 23 -33 24 7 24 14 0 42 l-19 21 -4 -30z"/>
<path d="M5517 8813 c-4 -3 -7 -13 -7 -22 1 -13 3 -13 11 2 11 19 8 33 -4 20z"/>
<path d="M5580 8745 c0 -8 2 -15 4 -15 2 0 6 7 10 15 3 8 1 15 -4 15 -6 0 -10
-7 -10 -15z"/>
<path d="M5410 8745 c0 -16 44 -45 67 -45 26 0 26 1 8 13 -26 17 -75 38 -75
32z"/>
<path d="M5416 8681 c-6 -9 35 -24 43 -15 6 5 -18 24 -31 24 -4 0 -9 -4 -12
-9z"/>
<path d="M5390 8640 c0 -8 25 -20 41 -20 20 0 7 18 -16 22 -14 3 -25 2 -25 -2z"/>
<path d="M5635 8290 c-3 -5 -1 -10 4 -10 6 0 11 5 11 10 0 6 -2 10 -4 10 -3 0
-8 -4 -11 -10z"/>
<path d="M5597 8266 c-4 -11 -1 -16 11 -16 19 0 54 20 35 20 -6 0 -18 3 -26 6
-8 3 -17 -2 -20 -10z"/>
<path d="M5584 8208 c-4 -7 -3 -8 4 -4 7 4 12 2 12 -4 0 -6 5 -8 10 -5 11 7 4
25 -10 25 -5 0 -12 -5 -16 -12z"/>
<path d="M5380 8202 c0 -5 9 -17 19 -26 16 -15 22 -15 40 -4 29 18 35 38 11
38 -12 0 -20 -7 -20 -17 -1 -17 -1 -17 -14 0 -14 18 -36 23 -36 9z"/>
<path d="M5485 8200 c3 -5 10 -10 16 -10 5 0 9 5 9 10 0 6 -7 10 -16 10 -8 0
-12 -4 -9 -10z"/>
<path d="M5360 8165 c0 -13 38 -46 43 -38 3 5 -3 17 -14 26 -20 17 -29 21 -29
12z"/>
<path d="M5490 7934 c0 -8 5 -12 10 -9 6 3 10 10 10 16 0 5 -4 9 -10 9 -5 0
-10 -7 -10 -16z"/>
<path d="M5616 7922 c-3 -6 -1 -14 5 -17 15 -10 25 3 12 16 -7 7 -13 7 -17 1z"/>
<path d="M5489 7888 c-8 -26 -4 -37 14 -42 28 -7 31 -2 17 23 -9 17 -28 28
-31 19z"/>
<path d="M5645 7821 c-3 -5 -1 -12 5 -16 5 -3 10 1 10 9 0 18 -6 21 -15 7z"/>
<path d="M5610 7795 c0 -8 7 -15 15 -15 8 0 15 4 15 9 0 5 -7 11 -15 15 -9 3
-15 0 -15 -9z"/>
<path d="M5565 7780 c-3 -5 -1 -10 4 -10 6 0 11 5 11 10 0 6 -2 10 -4 10 -3 0
-8 -4 -11 -10z"/>
<path d="M5647 7766 c-4 -10 -5 -21 -2 -24 9 -9 17 6 13 25 -3 17 -4 17 -11
-1z"/>
<path d="M5471 7734 c-7 -8 -10 -18 -7 -21 7 -7 36 16 36 28 0 13 -13 10 -29
-7z"/>
<path d="M5510 7724 c0 -11 62 -84 71 -84 17 0 9 23 -16 46 -14 13 -25 28 -25
34 0 5 -7 10 -15 10 -8 0 -15 -3 -15 -6z"/>
<path d="M5596 7703 c-11 -11 -6 -22 15 -33 28 -16 33 -8 11 18 -11 12 -22 19
-26 15z"/>
<path d="M5646 7701 c-4 -7 -5 -15 -2 -18 9 -9 19 4 14 18 -4 11 -6 11 -12 0z"/>
<path d="M5478 7669 c-20 -21 -23 -39 -8 -39 6 0 10 -8 10 -17 0 -14 3 -14 12
-5 10 10 10 14 0 21 -13 8 -6 41 9 41 5 0 9 5 9 10 0 15 -13 11 -32 -11z"/>
<path d="M5415 7640 c4 -6 11 -8 16 -5 14 9 11 15 -7 15 -8 0 -12 -5 -9 -10z"/>
<path d="M5540 7620 c0 -5 5 -10 10 -10 6 0 10 5 10 10 0 6 -4 10 -10 10 -5 0
-10 -4 -10 -10z"/>
<path d="M5455 7500 c3 -5 8 -10 11 -10 2 0 4 5 4 10 0 6 -5 10 -11 10 -5 0
-7 -4 -4 -10z"/>
<path d="M5495 7420 c3 -5 8 -10 11 -10 2 0 4 5 4 10 0 6 -5 10 -11 10 -5 0
-7 -4 -4 -10z"/>
<path d="M5460 7360 c0 -5 5 -10 11 -10 5 0 7 5 4 10 -3 6 -8 10 -11 10 -2 0
-4 -4 -4 -10z"/>
<path d="M6400 8962 c0 -12 19 -26 26 -19 2 2 -2 10 -11 17 -9 8 -15 8 -15 2z"/>
<path d="M6377 8924 c-4 -4 -7 -14 -7 -23 0 -11 3 -12 11 -4 6 6 10 16 7 23
-2 6 -7 8 -11 4z"/>
<path d="M6360 8731 c0 -14 28 -33 40 -26 20 12 10 35 -15 35 -14 0 -25 -4
-25 -9z"/>
<path d="M6426 8714 c-9 -24 -7 -34 7 -28 14 5 21 44 7 44 -4 0 -11 -7 -14
-16z"/>
<path d="M6490 8716 c0 -8 5 -18 10 -21 6 -3 19 -23 30 -43 10 -20 19 -30 19
-22 1 8 -6 28 -14 44 -8 15 -15 35 -15 42 0 8 -7 14 -15 14 -8 0 -15 -6 -15
-14z"/>
<path d="M6660 8720 c0 -5 7 -10 15 -10 8 0 15 5 15 10 0 6 -7 10 -15 10 -8 0
-15 -4 -15 -10z"/>
<path d="M5820 8688 c0 -19 6 -23 30 -24 31 -1 39 13 18 34 -20 20 -48 14 -48
-10z"/>
<path d="M6598 8677 c-24 -24 -6 -77 26 -77 19 0 23 6 23 30 0 21 -4 29 -13
26 -7 -3 -14 4 -16 16 -3 20 -4 21 -20 5z"/>
<path d="M6676 8663 c-4 -10 -4 -14 0 -10 4 4 13 2 21 -4 8 -7 13 -8 13 -1 0
5 -6 15 -14 21 -11 9 -15 8 -20 -6z"/>
<path d="M6470 8645 c0 -8 5 -15 10 -15 6 0 10 7 10 15 0 8 -4 15 -10 15 -5 0
-10 -7 -10 -15z"/>
<path d="M6408 8638 c-8 -7 -18 -28 -22 -46 -5 -30 -4 -33 17 -30 12 2 22 8
22 15 0 6 3 15 8 19 10 10 9 54 -1 54 -5 0 -15 -6 -24 -12z"/>
<path d="M5830 8630 c0 -5 7 -7 15 -4 8 4 15 8 15 10 0 2 -7 4 -15 4 -8 0 -15
-4 -15 -10z"/>
<path d="M6255 8630 c-3 -5 -1 -10 4 -10 6 0 11 5 11 10 0 6 -2 10 -4 10 -3 0
-8 -4 -11 -10z"/>
<path d="M6670 8620 c0 -5 7 -10 15 -10 8 0 15 5 15 10 0 6 -7 10 -15 10 -8 0
-15 -4 -15 -10z"/>
<path d="M6510 8591 c0 -6 -6 -11 -13 -9 -7 2 -14 -1 -17 -7 -2 -5 3 -11 12
-13 15 -3 34 26 23 36 -3 3 -5 0 -5 -7z"/>
<path d="M6685 8571 c7 -24 -11 -37 -23 -16 -5 10 -15 13 -25 9 -21 -7 -23
-34 -3 -34 9 0 12 -7 10 -17 -3 -10 2 -27 10 -38 15 -19 15 -19 16 14 0 23 7
39 25 53 20 16 23 23 14 34 -17 20 -31 17 -24 -5z"/>
<path d="M6565 8560 c3 -5 10 -10 16 -10 5 0 9 5 9 10 0 6 -7 10 -16 10 -8 0
-12 -4 -9 -10z"/>
<path d="M6405 8530 c-10 -16 14 -50 35 -50 24 0 33 15 25 40 -7 21 -49 28
-60 10z"/>
<path d="M6530 8498 c0 -4 7 -8 15 -8 8 0 15 4 15 8 0 5 -7 9 -15 9 -8 0 -15
-4 -15 -9z"/>
<path d="M5835 8461 c-3 -5 -1 -12 5 -16 5 -3 10 1 10 9 0 18 -6 21 -15 7z"/>
<path d="M6657 8340 c3 -11 7 -20 8 -20 1 0 5 9 8 20 3 12 0 20 -8 20 -8 0
-11 -8 -8 -20z"/>
<path d="M6672 8140 c0 -14 2 -19 5 -12 2 6 2 18 0 25 -3 6 -5 1 -5 -13z"/>
<path d="M6306 8056 c-5 -18 -8 -19 -16 -6 -7 12 -9 10 -7 -8 2 -26 27 -30 27
-4 0 15 2 15 11 2 9 -13 10 -13 6 1 -3 9 -1 21 4 26 6 6 4 10 -5 10 -8 0 -17
-10 -20 -21z"/>
<path d="M6327 7989 c7 -7 15 -10 18 -7 3 3 -2 9 -12 12 -14 6 -15 5 -6 -5z"/>
<path d="M5850 7821 c0 -25 6 -27 13 -6 4 8 2 17 -3 20 -6 4 -10 -3 -10 -14z"/>
<path d="M5860 7700 c0 -5 5 -10 10 -10 6 0 10 5 10 10 0 6 -4 10 -10 10 -5 0
-10 -4 -10 -10z"/>
<path d="M5870 7676 c0 -2 7 -9 15 -16 12 -10 15 -10 15 4 0 9 -7 16 -15 16
-8 0 -15 -2 -15 -4z"/>
<path d="M6065 7500 c3 -5 8 -10 11 -10 2 0 4 5 4 10 0 6 -5 10 -11 10 -5 0
-7 -4 -4 -10z"/>
<path d="M7335 9060 c3 -5 8 -10 11 -10 2 0 4 5 4 10 0 6 -5 10 -11 10 -5 0
-7 -4 -4 -10z"/>
<path d="M7270 8972 c0 -5 7 -13 16 -16 10 -4 14 -1 12 6 -5 15 -28 23 -28 10z"/>
<path d="M7335 8921 c-3 -5 -1 -12 5 -16 5 -3 10 1 10 9 0 18 -6 21 -15 7z"/>
<path d="M8450 8920 c0 -8 5 -22 10 -30 9 -13 10 -13 10 0 0 8 -5 22 -10 30
-9 13 -10 13 -10 0z"/>
<path d="M7714 8883 c-28 -5 -115 -92 -121 -119 -1 -5 -10 -47 -21 -94 -27
-112 -38 -387 -22 -525 14 -127 39 -272 49 -293 69 -146 85 -168 141 -197 25
-13 48 -16 90 -12 70 6 87 16 126 75 45 68 56 154 63 479 3 155 9 285 14 289
4 4 7 -2 7 -14 0 -25 6 -27 24 -9 14 14 21 347 7 347 -5 0 -7 -9 -4 -20 4 -14
-1 -21 -22 -26 -23 -6 -25 -8 -11 -16 24 -14 20 -38 -7 -38 -33 0 -34 -3 -27
-60 3 -27 3 -54 0 -60 -7 -11 -30 54 -30 84 0 17 -4 26 -40 95 -22 43 -61 83
-104 108 -20 12 -69 15 -112 6z m110 -27 c65 -27 116 -122 147 -273 56 -275
47 -703 -17 -839 -40 -84 -153 -112 -230 -56 -49 35 -86 102 -117 212 -38 132
-50 260 -45 485 5 209 21 302 67 394 42 81 116 110 195 77z"/>
<path d="M7444 8864 c3 -9 6 -18 6 -20 0 -2 7 -4 15 -4 13 0 13 3 3 20 -15 24
-33 27 -24 4z"/>
<path d="M8481 8835 c0 -11 4 -27 9 -35 9 -13 10 -13 9 0 0 8 -4 24 -9 35 l-9
20 0 -20z"/>
<path d="M8002 8801 c-8 -4 -10 -15 -6 -26 7 -17 8 -16 16 5 10 27 7 32 -10
21z"/>
<path d="M8506 8749 c3 -19 11 -52 16 -74 11 -47 25 -115 34 -170 4 -22 9 -35
11 -28 8 21 -47 286 -62 301 -3 3 -2 -10 1 -29z"/>
<path d="M8152 8720 c0 -14 2 -19 5 -12 2 6 2 18 0 25 -3 6 -5 1 -5 -13z"/>
<path d="M8291 8594 c0 -11 3 -14 6 -6 3 7 2 16 -1 19 -3 4 -6 -2 -5 -13z"/>
<path d="M7350 8571 c0 -6 4 -13 10 -16 6 -3 7 1 4 9 -7 18 -14 21 -14 7z"/>
<path d="M8311 8464 c0 -11 3 -14 6 -6 3 7 2 16 -1 19 -3 4 -6 -2 -5 -13z"/>
<path d="M8557 8446 c-3 -7 -1 -18 4 -23 8 -8 19 -194 19 -310 0 -13 5 -23 11
-23 9 0 10 33 5 123 -12 226 -21 279 -39 233z"/>
<path d="M7360 8413 c0 -6 8 -17 18 -24 16 -13 16 -13 2 6 -8 11 -16 22 -17
24 -2 2 -3 0 -3 -6z"/>
<path d="M7300 8345 c0 -5 5 -17 10 -25 5 -8 10 -10 10 -5 0 6 -5 17 -10 25
-5 8 -10 11 -10 5z"/>
<path d="M7280 8315 c0 -5 5 -17 10 -25 5 -8 10 -10 10 -5 0 6 -5 17 -10 25
-5 8 -10 11 -10 5z"/>
<path d="M7366 8267 c3 -10 9 -15 12 -12 3 3 0 11 -7 18 -10 9 -11 8 -5 -6z"/>
<path d="M7386 8227 c3 -10 9 -15 12 -12 3 3 0 11 -7 18 -10 9 -11 8 -5 -6z"/>
<path d="M7316 8097 c3 -10 9 -15 12 -12 3 3 0 11 -7 18 -10 9 -11 8 -5 -6z"/>
<path d="M7381 8100 c0 -8 4 -22 9 -30 12 -18 12 -2 0 25 -6 13 -9 15 -9 5z"/>
<path d="M8577 8010 c-17 -164 -17 -191 -1 -105 8 44 13 103 12 130 -3 46 -4
44 -11 -25z"/>
<path d="M7300 8050 c0 -5 5 -10 11 -10 5 0 7 5 4 10 -3 6 -8 10 -11 10 -2 0
-4 -4 -4 -10z"/>
<path d="M7400 7985 c0 -5 5 -17 10 -25 5 -8 10 -10 10 -5 0 6 -5 17 -10 25
-5 8 -10 11 -10 5z"/>
<path d="M7326 7857 c3 -10 9 -15 12 -12 3 3 0 11 -7 18 -10 9 -11 8 -5 -6z"/>
<path d="M7316 7807 c3 -10 9 -15 12 -12 3 3 0 11 -7 18 -10 9 -11 8 -5 -6z"/>
<path d="M7542 7555 c0 -16 2 -22 5 -12 2 9 2 23 0 30 -3 6 -5 -1 -5 -18z"/>
<path d="M7745 7440 c3 -5 8 -10 11 -10 2 0 4 5 4 10 0 6 -5 10 -11 10 -5 0
-7 -4 -4 -10z"/>
<path d="M7475 7383 c13 -47 16 -105 5 -98 -5 3 -10 2 -10 -4 0 -16 18 -22 23
-9 4 10 8 9 16 -2 5 -8 14 -11 18 -6 4 4 0 13 -10 20 -21 16 -22 26 -2 26 23
0 18 28 -9 51 -14 12 -22 28 -19 35 3 8 0 14 -7 14 -8 0 -10 -8 -5 -27z"/>
<path d="M7505 7390 c3 -5 8 -10 11 -10 2 0 4 5 4 10 0 6 -5 10 -11 10 -5 0
-7 -4 -4 -10z"/>
<path d="M7640 7384 c0 -20 25 -63 32 -54 2 3 -4 21 -14 40 -13 26 -18 30 -18
14z"/>
<path d="M7770 7320 c0 -5 5 -10 11 -10 5 0 7 5 4 10 -3 6 -8 10 -11 10 -2 0
-4 -4 -4 -10z"/>
<path d="M7626 7304 c-8 -22 -4 -25 11 -9 7 8 9 16 4 19 -5 3 -12 -1 -15 -10z"/>
<path d="M7515 7200 c3 -5 8 -10 11 -10 2 0 4 5 4 10 0 6 -5 10 -11 10 -5 0
-7 -4 -4 -10z"/>
<path d="M7487 7180 c3 -11 9 -20 15 -20 5 0 4 9 -2 20 -6 11 -12 20 -14 20
-2 0 -2 -9 1 -20z"/>
<path d="M7637 6864 c-1 -1 -128 -4 -282 -8 -154 -3 -358 -9 -452 -12 l-173
-7 1 -141 c1 -78 4 -206 8 -286 l6 -145 165 0 165 0 7 -76 c4 -41 14 -188 22
-325 9 -137 22 -352 31 -479 8 -126 21 -360 30 -520 9 -159 17 -306 18 -325
l3 -35 55 0 c29 1 175 5 323 9 l269 9 -7 196 c-8 249 -33 636 -81 1256 -8 105
-16 217 -17 250 l-3 60 179 3 179 2 -6 93 c-4 50 -9 153 -12 227 -3 74 -8 163
-11 198 l-6 62 -161 -1 c-112 -1 -148 -4 -117 -9 62 -11 201 -14 223 -5 31 13
38 -4 37 -75 0 -8 1 -35 4 -60 7 -81 18 -274 20 -340 l1 -65 -75 -2 c-41 -2
-119 -4 -172 -5 l-98 -1 0 -41 c0 -23 5 -90 10 -151 5 -60 12 -178 15 -261 5
-150 4 -152 -18 -158 -20 -6 -21 -7 -4 -17 9 -6 15 -15 11 -20 -3 -6 -7 -31
-9 -55 -3 -50 -12 -66 -25 -45 -5 9 -8 1 -8 -23 0 -24 5 -36 14 -36 17 0 18
-12 2 -28 -9 -9 -8 -12 5 -12 10 0 17 -8 17 -18 0 -15 -11 -18 -77 -20 -115
-5 -167 -2 -177 8 -11 11 3 18 64 28 52 9 51 24 -2 28 -20 1 -42 5 -48 9 -5 3
-43 8 -83 10 -39 3 -114 10 -165 16 -77 10 -92 14 -90 28 3 13 13 15 48 12 74
-7 85 -6 85 4 0 5 -25 11 -55 13 -30 2 -59 7 -63 12 -5 4 -11 36 -14 71 -2 35
-8 70 -13 79 -4 8 -11 83 -15 165 -3 83 -8 170 -10 195 -2 25 -7 74 -10 110
-3 35 -8 66 -10 69 -3 2 -78 5 -167 5 l-163 1 -3 188 c-2 129 1 187 8 187 11
0 8 44 -6 121 -4 19 0 29 13 34 32 13 397 26 473 16 14 -2 72 0 130 4 152 10
259 15 308 15 23 -1 42 4 42 9 0 8 -73 12 -83 5z m-137 -1576 c0 -7 -5 -20
-10 -28 -8 -12 -11 -13 -22 -2 -11 11 -9 16 6 28 24 17 26 17 26 2z m-105 -37
c-3 -6 -11 -11 -17 -11 -6 0 -6 6 2 15 14 17 26 13 15 -4z m-135 -91 c0 -5
-12 -10 -26 -10 -14 0 -23 4 -19 10 3 6 15 10 26 10 10 0 19 -4 19 -10z m184
-17 c-5 -5 -12 -12 -16 -18 -4 -6 -8 -2 -8 8 0 9 7 17 17 17 9 0 12 -3 7 -7z
m234 -298 c64 -14 120 -29 124 -33 4 -4 9 -68 10 -142 l3 -135 -304 -8 c-167
-4 -306 -5 -309 -2 -8 8 -22 318 -15 325 7 8 135 17 261 18 87 2 138 -4 230
-23z"/>
<path d="M6265 6830 c-115 -4 -226 -8 -246 -9 l-36 -1 5 -232 c2 -128 7 -236
11 -241 4 -4 6 96 5 223 l-3 230 22 1 c85 4 137 -15 138 -51 0 -14 3 -34 5
-45 3 -11 5 -29 5 -40 -1 -11 -1 -36 -1 -55 0 -19 1 -44 2 -55 2 -15 -3 -20
-19 -19 -29 1 -29 -4 2 -28 14 -11 23 -23 20 -28 -3 -5 -1 -11 5 -15 5 -3 10
0 10 8 0 8 7 20 15 27 14 11 14 15 1 29 -18 20 -20 194 -3 226 6 11 10 25 9
31 -1 7 12 15 30 18 55 11 326 17 332 8 5 -8 36 -897 40 -1137 1 -69 1 -70
-24 -68 -14 1 -72 4 -130 7 -58 3 -130 9 -160 13 -30 4 -59 6 -64 4 -5 -1 -21
3 -36 9 -24 10 -28 17 -28 57 -1 52 -15 73 -47 73 -32 0 -97 29 -90 40 3 5 31
9 61 9 54 -1 74 5 61 17 -7 7 -49 8 -82 3 -12 -3 -19 1 -18 9 2 6 -3 12 -11
12 -8 0 -17 4 -20 8 -3 4 -8 73 -12 153 -3 79 -9 146 -12 149 -5 5 4 -280 18
-565 5 -99 17 -360 27 -580 12 -284 20 -387 26 -355 4 25 5 65 2 90 -3 25 -8
129 -12 232 l-5 187 78 -2 c44 -1 69 -3 57 -5 -13 -2 -23 -8 -23 -13 0 -5 10
-9 23 -10 76 -2 178 -12 212 -20 22 -6 65 -15 95 -20 30 -6 63 -14 72 -19 10
-6 29 -10 42 -10 14 0 27 -4 30 -9 3 -5 8 -45 10 -90 5 -89 3 -93 -54 -98 -46
-4 -180 -31 -250 -50 -30 -8 -64 -16 -75 -18 -11 -3 -47 -10 -80 -17 -34 -7
-51 -14 -40 -16 27 -6 46 -22 39 -33 -10 -17 25 -21 75 -9 26 6 73 15 102 20
114 18 235 39 256 46 33 9 40 -16 46 -163 7 -157 31 -139 -198 -148 -88 -3
-213 -8 -277 -12 l-116 -6 -5 29 c-3 25 -4 24 -6 -8 0 -21 2 -38 7 -38 4 0
124 7 267 15 143 8 280 15 304 15 l44 0 -7 148 c-11 237 -45 876 -61 1152 -8
140 -17 415 -20 610 -3 195 -8 374 -11 398 l-5 42 -57 -2 c-31 -1 -151 -5
-267 -8z m-5 -1411 c0 -5 -4 -9 -10 -9 -5 0 -10 7 -10 16 0 8 5 12 10 9 6 -3
10 -10 10 -16z m100 -619 c0 -14 -13 -17 -87 -23 -84 -7 -80 8 5 20 37 6 70
11 75 12 4 0 7 -4 7 -9z"/>
<path d="M6118 6583 c7 -3 16 -2 19 1 4 3 -2 6 -13 5 -11 0 -14 -3 -6 -6z"/>
<path d="M6090 6266 c0 -8 5 -18 10 -21 6 -3 10 1 10 9 0 8 -4 18 -10 21 -5 3
-10 -1 -10 -9z"/>
<path d="M7350 6261 c0 -6 4 -13 10 -16 6 -3 7 1 4 9 -7 18 -14 21 -14 7z"/>
<path d="M6003 6220 c0 -25 2 -35 4 -22 2 12 2 32 0 45 -2 12 -4 2 -4 -23z"/>
<path d="M7336 6237 c3 -10 9 -15 12 -12 3 3 0 11 -7 18 -10 9 -11 8 -5 -6z"/>
<path d="M7310 6171 c0 -6 4 -13 10 -16 6 -3 7 1 4 9 -7 18 -14 21 -14 7z"/>
<path d="M7380 6150 c6 -11 13 -20 16 -20 2 0 0 9 -6 20 -6 11 -13 20 -16 20
-2 0 0 -9 6 -20z"/>
<path d="M7340 6101 c0 -12 5 -21 10 -21 6 0 10 6 10 14 0 8 -4 18 -10 21 -5
3 -10 -3 -10 -14z"/>
<path d="M7366 6057 c3 -10 9 -15 12 -12 3 3 0 11 -7 18 -10 9 -11 8 -5 -6z"/>
<path d="M7285 6047 c-16 -19 -16 -47 -3 -107 13 -61 43 -107 31 -49 -4 23 -3
30 5 25 8 -5 10 -1 5 9 -3 10 0 21 7 25 8 5 2 10 -19 15 -32 7 -33 9 -14 78 5
20 2 21 -12 4z m25 -108 c0 -11 -4 -17 -10 -14 -5 3 -10 13 -10 21 0 8 5 14
10 14 6 0 10 -9 10 -21z"/>
<path d="M7320 6042 c0 -4 9 -8 19 -8 11 0 17 4 15 8 -3 4 -12 8 -20 8 -8 0
-14 -4 -14 -8z"/>
<path d="M7351 5997 c-11 -17 -11 -19 0 -10 10 10 15 6 26 -22 39 -103 42
-110 43 -88 0 13 -7 41 -16 62 -9 22 -14 46 -11 53 3 8 9 2 16 -14 6 -16 13
-28 16 -28 5 0 -10 45 -22 63 -3 5 -9 3 -14 -4 -7 -11 -11 -11 -17 -2 -5 9
-12 6 -21 -10z"/>
<path d="M7300 6000 c0 -5 5 -10 11 -10 5 0 7 5 4 10 -3 6 -8 10 -11 10 -2 0
-4 -4 -4 -10z"/>
<path d="M7692 5970 c0 -14 2 -19 5 -12 2 6 2 18 0 25 -3 6 -5 1 -5 -13z"/>
<path d="M6197 5966 c-3 -8 -2 -18 4 -21 5 -4 7 -9 5 -13 -2 -4 0 -27 4 -52 6
-31 4 -65 -6 -107 -15 -64 -7 -112 18 -114 7 0 21 -2 30 -4 15 -3 16 0 7 17
-6 11 -9 28 -6 38 2 9 -1 28 -8 41 -11 20 -10 25 3 35 14 10 14 14 0 45 -9 19
-19 54 -22 79 -8 55 -20 79 -29 56z"/>
<path d="M7361 5925 c1 -19 18 -51 18 -35 0 8 -4 22 -9 30 -5 8 -9 11 -9 5z"/>
<path d="M7267 5848 c-7 -49 3 -110 18 -108 5 1 12 -7 16 -17 6 -15 8 -14 9 7
l1 25 14 -25 14 -25 1 26 c0 18 -6 28 -18 31 -14 4 -20 18 -25 58 -8 70 -23
83 -30 28z m23 -33 c0 -8 -4 -15 -10 -15 -5 0 -10 7 -10 15 0 8 5 15 10 15 6
0 10 -7 10 -15z"/>
<path d="M7381 5865 c0 -5 6 -35 14 -65 12 -48 13 -51 14 -20 0 30 -27 113
-28 85z"/>
<path d="M7310 5800 c0 -5 5 -10 11 -10 5 0 7 5 4 10 -3 6 -8 10 -11 10 -2 0
-4 -4 -4 -10z"/>
<path d="M7350 5776 c0 -8 4 -17 9 -20 5 -4 7 3 4 14 -6 23 -13 26 -13 6z"/>
<path d="M7222 5732 c-12 -2 -20 -8 -16 -13 3 -5 10 -7 15 -3 6 3 17 -2 24
-12 14 -18 14 -18 15 3 0 26 -7 30 -38 25z"/>
<path d="M7705 5730 c3 -5 8 -10 11 -10 2 0 4 5 4 10 0 6 -5 10 -11 10 -5 0
-7 -4 -4 -10z"/>
<path d="M6300 5710 c0 -5 5 -10 11 -10 5 0 7 5 4 10 -3 6 -8 10 -11 10 -2 0
-4 -4 -4 -10z"/>
<path d="M6320 5665 c0 -8 5 -15 10 -15 6 0 10 7 10 15 0 8 -4 15 -10 15 -5 0
-10 -7 -10 -15z"/>
<path d="M7279 5673 c-5 -31 -3 -36 21 -39 22 -3 23 -2 9 9 -9 6 -18 19 -22
27 -4 10 -6 11 -8 3z"/>
<path d="M7216 5650 c-18 -6 -18 -7 5 -13 32 -9 39 -9 39 2 0 13 -23 19 -44
11z"/>
<path d="M7220 5606 c0 -2 7 -6 15 -10 8 -3 15 -1 15 4 0 6 -7 10 -15 10 -8 0
-15 -2 -15 -4z"/>
<path d="M7300 5600 c-13 -8 -12 -10 3 -10 9 0 17 5 17 10 0 12 -1 12 -20 0z"/>
<path d="M7562 5585 c0 -16 2 -22 5 -12 2 9 2 23 0 30 -3 6 -5 -1 -5 -18z"/>
<path d="M7620 5586 c0 -14 4 -27 8 -30 5 -3 6 8 4 25 -5 35 -12 38 -12 5z"/>
<path d="M7358 5588 c19 -19 14 -28 -13 -28 -14 0 -25 -4 -25 -10 0 -10 29
-13 108 -12 23 0 42 -3 42 -8 0 -5 31 -9 70 -8 l70 0 -7 27 c-7 32 -13 40 -13
19 0 -21 -21 -28 -65 -21 -24 4 -40 13 -45 27 -7 16 -9 17 -9 4 -1 -9 -6 -20
-12 -24 -14 -9 -59 16 -59 33 0 7 -11 13 -27 13 -21 0 -24 -3 -15 -12z"/>
<path d="M7440 5590 c0 -5 5 -10 11 -10 5 0 7 5 4 10 -3 6 -8 10 -11 10 -2 0
-4 -4 -4 -10z"/>
<path d="M7500 5580 c0 -5 5 -10 10 -10 6 0 10 5 10 10 0 6 -4 10 -10 10 -5 0
-10 -4 -10 -10z"/>
<path d="M7620 5521 c0 -5 11 -11 25 -14 15 -2 24 0 22 6 -4 13 -47 20 -47 8z"/>
<path d="M8235 5198 c-83 -31 -169 -127 -199 -222 -28 -89 -20 -212 20 -296
17 -36 48 -82 69 -102 62 -59 98 -73 195 -73 71 0 94 4 142 27 79 37 142 98
181 177 28 58 32 75 32 151 0 76 -3 92 -33 152 -59 120 -163 188 -297 194 -44
2 -93 -1 -110 -8z m293 -67 c14 -13 22 -30 22 -51 0 -25 4 -31 15 -26 9 3 18
-1 21 -9 4 -8 10 -12 15 -9 5 3 16 -10 24 -30 18 -42 18 -46 5 -46 -5 0 -10 7
-10 16 0 8 -4 12 -10 9 -5 -3 -10 0 -10 7 0 7 -10 18 -23 23 -22 11 -22 10
-20 -58 1 -43 6 -73 14 -77 6 -5 9 -15 6 -23 -3 -8 -1 -46 5 -84 16 -105 13
-124 -28 -161 -34 -33 -62 -38 -56 -11 10 42 11 79 1 79 -7 0 -9 10 -5 24 3
14 -1 50 -9 82 -8 31 -12 60 -10 64 3 5 -1 10 -7 13 -10 3 -10 7 1 21 12 14
11 19 -3 35 -15 16 -15 19 -1 31 19 16 19 34 0 54 -17 17 -10 46 11 46 17 0
19 16 3 26 -8 4 -7 9 2 15 11 8 11 12 -3 23 -10 7 -18 18 -18 25 0 17 43 12
68 -8z m-348 -85 c-5 -5 -10 -21 -10 -34 0 -44 -25 -17 -26 29 -2 58 5 67 28
39 13 -16 16 -26 8 -34z m455 -116 c3 -5 1 -10 -4 -10 -6 0 -11 5 -11 10 0 6
2 10 4 10 3 0 8 -4 11 -10z m-453 -52 c1 -7 2 -29 2 -48 1 -25 6 -35 20 -38
10 -2 22 2 27 9 4 7 11 10 16 6 4 -5 3 -11 -3 -15 -6 -4 -13 -15 -17 -25 -4
-10 -12 -15 -17 -12 -6 4 -17 1 -25 -5 -8 -7 -16 -11 -16 -9 -6 19 -3 149 3
149 4 0 9 -6 10 -12z m-12 -169 c0 -15 4 -19 16 -15 58 22 92 12 39 -12 -28
-13 -40 -48 -32 -98 3 -18 3 -34 1 -34 -39 0 -134 115 -134 162 0 15 9 18 55
18 49 0 55 -2 55 -21z"/>
</g>
</svg>
